0
SECTION
2
HEADER
9
$INSUNITS
70
1
9
$ACADVER
1
AC1014
9
$HANDSEED
5
FFFF
0
ENDSEC
0
SECTION
2
TABLES
0
TABLE
2
VPORT
5
8
100
AcDbSymbolTable
0
ENDTAB
0
TABLE
2
LTYPE
5
5
100
AcDbSymbolTable
0
LTYPE
5
14
100
AcDbSymbolTableRecord
100
AcDbLinetypeTableRecord
2
BYBLOCK
70
0
0
LTYPE
5
15
100
AcDbSymbolTableRecord
100
AcDbLinetypeTableRecord
2
BYLAYER
70
0
0
ENDTAB
0
TABLE
2
LAYER
5
2
100
AcDbSymbolTable
70
2
0
LAYER
5
50
100
AcDbSymbolTableRecord
100
AcDbLayerTableRecord
2
0
70
0
6
CONTINUOUS
0
ENDTAB
0
TABLE
2
STYLE
5
3
100
AcDbSymbolTable
70
1
0
STYLE
5
11
100
AcDbSymbolTableRecord
100
AcDbTextStyleTableRecord
2
STANDARD
70
0
0
ENDTAB
0
TABLE
2
VIEW
5
6
100
AcDbSymbolTable
70
0
0
ENDTAB
0
TABLE
2
UCS
5
7
100
AcDbSymbolTable
70
0
0
ENDTAB
0
TABLE
2
APPID
5
9
100
AcDbSymbolTable
70
2
0
APPID
5
12
100
AcDbSymbolTableRecord
100
AcDbRegAppTableRecord
2
ACAD
70
0
0
ENDTAB
0
TABLE
2
DIMSTYLE
5
A
100
AcDbSymbolTable
70
1
0
ENDTAB
0
TABLE
2
BLOCK_RECORD
5
1
100
AcDbSymbolTable
70
1
0
BLOCK_RECORD
5
1F
100
AcDbSymbolTableRecord
100
AcDbBlockTableRecord
2
*MODEL_SPACE
0
BLOCK_RECORD
5
1B
100
AcDbSymbolTableRecord
100
AcDbBlockTableRecord
2
*PAPER_SPACE
0
ENDTAB
0
ENDSEC
0
SECTION
2
BLOCKS
0
BLOCK
5
20
100
AcDbEntity
100
AcDbBlockBegin
2
*MODEL_SPACE
0
ENDBLK
5
21
100
AcDbEntity
100
AcDbBlockEnd
0
BLOCK
5
1C
100
AcDbEntity
100
AcDbBlockBegin
2
*PAPER_SPACE
0
ENDBLK
5
1D
100
AcDbEntity
100
AcDbBlockEnd
0
ENDSEC
0
SECTION
2
ENTITIES
0
LINE
5
100
100
AcDbEntity
8
0
100
AcDbLine
10
-0.45777799999999996
20
0
30
0
11
-0.45777799999999996
21
0.24999999999999997
31
0
0
LINE
5
101
100
AcDbEntity
8
0
100
AcDbLine
10
-1.7499999999999996
20
0.24999999999999997
30
0
11
-0.45777799999999996
21
0.24999999999999997
31
0
0
LINE
5
102
100
AcDbEntity
8
0
100
AcDbLine
10
-0.45777799999999996
20
0.24999999999999997
30
0
11
-0.45777799999999996
21
0
31
0
0
LINE
5
103
100
AcDbEntity
8
0
100
AcDbLine
10
0.45777799999999996
20
0
30
0
11
0.45777799999999996
21
0.24999999999999997
31
0
0
LINE
5
104
100
AcDbEntity
8
0
100
AcDbLine
10
0.45777799999999996
20
0.24999999999999997
30
0
11
1.75
21
0.24999999999999989
31
0
0
LINE
5
105
100
AcDbEntity
8
0
100
AcDbLine
10
1.75
20
0.24999999999999989
30
0
11
1.75
21
1.6249999941974003
31
0
0
LINE
5
106
100
AcDbEntity
8
0
100
AcDbLine
10
1.75
20
1.6249999941974003
30
0
11
1.9999999999999998
21
1.6249999941974003
31
0
0
LINE
5
107
100
AcDbEntity
8
0
100
AcDbLine
10
1.9999999999999998
20
1.6249999941974003
30
0
11
1.9999999999999998
21
2.6249999941973994
31
0
0
LINE
5
108
100
AcDbEntity
8
0
100
AcDbLine
10
1.9999999999999998
20
2.6249999941973994
30
0
11
1.75
21
2.6249999941973994
31
0
0
LINE
5
109
100
AcDbEntity
8
0
100
AcDbLine
10
1.75
20
2.6249999941973994
30
0
11
1.75
21
3.8000000861294336
31
0
0
LINE
5
110
100
AcDbEntity
8
0
100
AcDbLine
10
-2.0000000093719725
20
1.6249999830069859
30
0
11
-1.9999999906280272
21
2.624999983006985
31
0
0
LINE
5
111
100
AcDbEntity
8
0
100
AcDbLine
10
-0.45777799999999996
20
0
30
0
11
0.45777799999999996
21
0
31
0
0
LINE
5
112
100
AcDbEntity
8
0
100
AcDbLine
10
1.9999999999999998
20
2.1249999941973998
30
0
11
-2
21
2.1249999941973998
31
0
0
LINE
5
113
100
AcDbEntity
8
0
100
AcDbLine
10
0
20
2.1249999941973998
30
0
11
-4.6859863321230482e-09
21
3.8000000861294336
31
0
0
LINE
5
114
100
AcDbEntity
8
0
100
AcDbLine
10
-1.9999999906280272
20
2.624999983006985
30
0
11
-1.7500000093719725
21
2.624999984405787
31
0
0
LINE
5
115
100
AcDbEntity
8
0
100
AcDbLine
10
-2.0000000093719725
20
1.6249999830069859
30
0
11
-1.9999999906280272
21
2.624999983006985
31
0
0
LINE
5
116
100
AcDbEntity
8
0
100
AcDbLine
10
-1.7500000093719725
20
1.6250000269993052
30
0
11
-2.0000000093719725
21
1.6249999830069859
31
0
0
LINE
5
117
100
AcDbEntity
8
0
100
AcDbLine
10
-1.7500000093719725
20
1.6250000269993052
30
0
11
-1.7499999999999996
21
0.24999999999999997
31
0
0
LINE
5
118
100
AcDbEntity
8
0
100
AcDbLine
10
-1.7500000093719725
20
2.624999984405787
30
0
11
-1.750000007987262
21
2.6988751189313409
31
0
0
LINE
5
119
100
AcDbEntity
8
0
100
AcDbLine
10
-1.750000007987262
20
2.6988751189313409
30
0
11
-1.7500000079872615
21
3.8000001250546731
31
0
0
LINE
5
120
100
AcDbEntity
8
0
100
AcDbLine
10
-0.50000000468598627
20
3.8000000861294336
30
0
11
-0.50000000468598649
21
4.0500000861294332
31
0
0
LINE
5
121
100
AcDbEntity
8
0
100
AcDbLine
10
-0.50000000468598649
20
4.0500000861294332
30
0
11
0.49999999531401362
21
4.0500000861294341
31
0
0
LINE
5
122
100
AcDbEntity
8
0
100
AcDbLine
10
0.49999999531401362
20
4.0500000861294341
30
0
11
0.49999999531401362
21
3.8000000861294336
31
0
0
LINE
5
123
100
AcDbEntity
8
0
100
AcDbLine
10
1.75
20
3.8000000861294336
30
0
11
0.49999999531401362
21
3.8000000861294336
31
0
0
LINE
5
124
100
AcDbEntity
8
0
100
AcDbLine
10
-0.50000000468598627
20
3.8000000861294336
30
0
11
-1.7500000079872615
21
3.8000001250546731
31
0
0
LINE
5
125
100
AcDbEntity
8
0
100
AcDbLine
10
-4.6859863321230482e-09
20
3.8000000861294336
30
0
11
-4.6859863321230482e-09
21
4.0500000861294332
31
0
0
LINE
5
126
100
AcDbEntity
8
0
100
AcDbLine
10
0.49999999531401362
20
3.9250000861294341
30
0
11
-4.6859863321230482e-09
21
3.9250000861294332
31
0
0
CIRCLE
5
127
100
AcDbEntity
8
0
100
AcDbCircle
10
-4.6859863321230482e-09
20
3.9250000861294332
30
0
40
0.049212598425196846
0
LINE
5
128
100
AcDbEntity
8
0
100
AcDbLine
10
-0.45777799999999996
20
0.24999999999999997
30
0
11
-0.45777799999999996
21
0.125
31
0
0
LINE
5
129
100
AcDbEntity
8
0
100
AcDbLine
10
-0.45777799999999996
20
0.125
30
0
11
0.45777799999999996
21
0.12499999999999999
31
0
0
LINE
5
130
100
AcDbEntity
8
0
100
AcDbLine
10
0
20
0
30
0
11
0
21
0.12499999999999999
31
0
0
CIRCLE
5
131
100
AcDbEntity
8
0
100
AcDbCircle
10
0
20
0.12499999999999999
30
0
40
0.049212598425196839
0
LINE
5
132
100
AcDbEntity
8
0
100
AcDbLine
10
1.75
20
2.6249999941973994
30
0
11
1.875
21
2.6249999941973994
31
0
0
LINE
5
133
100
AcDbEntity
8
0
100
AcDbLine
10
1.875
20
2.6249999941973994
30
0
11
1.875
21
2.1249999941973998
31
0
0
CIRCLE
5
134
100
AcDbEntity
8
0
100
AcDbCircle
10
1.875
20
2.1249999941973998
30
0
40
0.049999999999999864
0
CIRCLE
5
135
100
AcDbEntity
8
0
100
AcDbCircle
10
-1.875
20
2.1249999837063864
30
0
40
0.049999999999999864
0
LWPOLYLINE
5
136
100
AcDbEntity
8
0
100
AcDbPolyline
90
5
70
1
43
0.0
10
-0.12500000468598629
20
3.8000000861294336
10
-4.6859863321230482e-09
20
3.8000000861294336
10
0.12499999531401364
20
3.8000000861294336
10
0.12499999531401364
20
0.30000008612943374
10
-0.12500000468598629
20
0.30000008612943374
0
ENDSEC
0
SECTION
2
OBJECTS
0
DICTIONARY
5
C
100
AcDbDictionary
3
ACAD_GROUP
350
D
3
ACAD_MLINESTYLE
350
17
0
DICTIONARY
5
D
100
AcDbDictionary
0
DICTIONARY
5
1A
330
C
100
AcDbDictionary
0
DICTIONARY
5
17
100
AcDbDictionary
0
ENDSEC
0
EOF
