0
SECTION
2
HEADER
9
$INSUNITS
70
1
9
$ACADVER
1
AC1014
9
$HANDSEED
5
FFFF
0
ENDSEC
0
SECTION
2
TABLES
0
TABLE
2
VPORT
5
8
100
AcDbSymbolTable
0
ENDTAB
0
TABLE
2
LTYPE
5
5
100
AcDbSymbolTable
0
LTYPE
5
14
100
AcDbSymbolTableRecord
100
AcDbLinetypeTableRecord
2
BYBLOCK
70
0
0
LTYPE
5
15
100
AcDbSymbolTableRecord
100
AcDbLinetypeTableRecord
2
BYLAYER
70
0
0
ENDTAB
0
TABLE
2
LAYER
5
2
100
AcDbSymbolTable
70
2
0
LAYER
5
50
100
AcDbSymbolTableRecord
100
AcDbLayerTableRecord
2
0
70
0
6
CONTINUOUS
0
ENDTAB
0
TABLE
2
STYLE
5
3
100
AcDbSymbolTable
70
1
0
STYLE
5
11
100
AcDbSymbolTableRecord
100
AcDbTextStyleTableRecord
2
STANDARD
70
0
0
ENDTAB
0
TABLE
2
VIEW
5
6
100
AcDbSymbolTable
70
0
0
ENDTAB
0
TABLE
2
UCS
5
7
100
AcDbSymbolTable
70
0
0
ENDTAB
0
TABLE
2
APPID
5
9
100
AcDbSymbolTable
70
2
0
APPID
5
12
100
AcDbSymbolTableRecord
100
AcDbRegAppTableRecord
2
ACAD
70
0
0
ENDTAB
0
TABLE
2
DIMSTYLE
5
A
100
AcDbSymbolTable
70
1
0
ENDTAB
0
TABLE
2
BLOCK_RECORD
5
1
100
AcDbSymbolTable
70
1
0
BLOCK_RECORD
5
1F
100
AcDbSymbolTableRecord
100
AcDbBlockTableRecord
2
*MODEL_SPACE
0
BLOCK_RECORD
5
1B
100
AcDbSymbolTableRecord
100
AcDbBlockTableRecord
2
*PAPER_SPACE
0
ENDTAB
0
ENDSEC
0
SECTION
2
BLOCKS
0
BLOCK
5
20
100
AcDbEntity
100
AcDbBlockBegin
2
*MODEL_SPACE
0
ENDBLK
5
21
100
AcDbEntity
100
AcDbBlockEnd
0
BLOCK
5
1C
100
AcDbEntity
100
AcDbBlockBegin
2
*PAPER_SPACE
0
ENDBLK
5
1D
100
AcDbEntity
100
AcDbBlockEnd
0
ENDSEC
0
SECTION
2
ENTITIES
0
LWPOLYLINE
5
100
100
AcDbEntity
8
0
100
AcDbPolyline
90
11
70
1
43
0.0
10
0.50000001595714894
20
-0.80000002553143834
10
3.3000001053171832
20
-0.80000002553143834
10
3.8000001212743322
20
-0.80000002553143834
10
3.8000001212743322
20
2.2000000702114555
10
2.8000000893600343
20
2.2000000702114555
10
2.8000000893600343
20
2.4000000765943148
10
-0.69999991063996581
20
2.4000000765943148
10
-0.70000002234000858
20
2.2000000702114555
10
-1.7000000542543063
20
2.2000000702114555
10
-1.7000000542543063
20
-0.80000002553143834
10
-0.70000002234000858
20
-0.80000002553143834
0
LINE
5
101
100
AcDbEntity
8
0
100
AcDbLine
10
-0.25940264272282471
20
-0.72962498960284106
30
0
11
-0.6000000191485787
21
-0.65000002074429364
31
0
0
LINE
5
102
100
AcDbEntity
8
0
100
AcDbLine
10
-0.6000000191485787
20
-0.65000002074429364
30
0
11
-0.6000000191485787
21
-0.35000001117000429
31
0
0
LINE
5
103
100
AcDbEntity
8
0
100
AcDbLine
10
-0.6000000191485787
20
-0.35000001117000429
30
0
11
-0.5598935162085843
21
-0.33236586872336232
31
0
0
LINE
5
104
100
AcDbEntity
8
0
100
AcDbLine
10
-0.6000000191485787
20
-0.35000001117000429
30
0
11
-0.57994676767858144
21
-0.25275273152602962
31
0
0
LINE
5
105
100
AcDbEntity
8
0
100
AcDbLine
10
-0.57994676767858144
20
-0.25275273152602962
30
0
11
-0.52999999359484729
21
-0.2399999970995535
31
0
0
LINE
5
106
100
AcDbEntity
8
0
100
AcDbLine
10
-0.57994676767858144
20
-0.25275273152602962
30
0
11
-0.57994676767858144
21
-0.159999998066369
31
0
0
LINE
5
107
100
AcDbEntity
8
0
100
AcDbLine
10
-0.57994676767858144
20
-0.159999998066369
30
0
11
-0.49346777337331121
21
-0.13791962014256209
31
0
0
LINE
5
108
100
AcDbEntity
8
0
100
AcDbLine
10
-0.57994676767858144
20
-0.159999998066369
30
0
11
-0.53670727052594636
21
-0.068810785547415501
31
0
0
LINE
5
109
100
AcDbEntity
8
0
100
AcDbLine
10
-0.53670727052594636
20
-0.068810785547415501
30
0
11
-0.50999999383655115
21
-0.068810785547415501
31
0
0
LINE
5
110
100
AcDbEntity
8
0
100
AcDbLine
10
-0.53670727052594636
20
-0.068810785547415501
30
0
11
-0.47999999419910699
21
0.10999999867062868
31
0
0
LINE
5
111
100
AcDbEntity
8
0
100
AcDbLine
10
-0.47999999419910699
20
0.10999999867062868
30
0
11
-0.37999999540762636
21
0.11999999854977675
31
0
0
LINE
5
112
100
AcDbEntity
8
0
100
AcDbLine
10
-0.37999999540762636
20
0.11999999854977675
30
0
11
-0.37999999540762636
21
-0.47999999419910699
31
0
0
ARC
5
113
100
AcDbEntity
8
0
100
AcDbCircle
10
-0.2016666642294854
20
-0.33166666265841027
30
0
40
0.2319602428328062
100
AcDbArc
50
219.75286109838359
51
250.26309850449903
0
LINE
5
114
100
AcDbEntity
8
0
100
AcDbLine
10
-0.27999999661614572
20
-0.54999999335314342
30
0
11
-0.13556631838972744
21
-0.60181970996872858
31
0
0
ARC
5
115
100
AcDbEntity
8
0
100
AcDbCircle
10
-0.10680066237149025
20
-0.52164309425832289
30
0
40
0.085180705989875483
100
AcDbArc
50
250.26309850449906
51
320.42572007337691
0
LINE
5
116
100
AcDbEntity
8
0
100
AcDbLine
10
-0.041143433417325868
20
-0.575909851660936
30
0
11
-0.31582810503781628
21
-0.47735886260625621
31
0
0
ARC
5
117
100
AcDbEntity
8
0
100
AcDbCircle
10
-0.38737226938249425
20
-0.53123415485097569
30
0
40
0.3490993049824801
100
AcDbArc
50
-7.3525434857868843
51
20.320854514529714
0
LINE
5
118
100
AcDbEntity
8
0
100
AcDbLine
10
-0.059999999274888374
20
-0.40999999504507056
30
0
11
-0.089999998912332554
21
-0.25999999685784964
31
0
0
ARC
5
119
100
AcDbEntity
8
0
100
AcDbCircle
10
-0.15653845964666388
20
-0.2065384590424042
30
0
40
0.085355156742205396
100
AcDbArc
50
210.60953675125907
51
321.21922968879113
0
ARC
5
120
100
AcDbEntity
8
0
100
AcDbCircle
10
-0.17534482546713065
20
-0.22775861793714811
30
0
40
0.059007344805964743
100
AcDbArc
50
39.784136084094605
51
202.14337698005244
0
ARC
5
121
100
AcDbEntity
8
0
100
AcDbCircle
10
-0.14311917009080097
20
-0.22607854702939004
30
0
40
0.033267579719912316
100
AcDbArc
50
198.3334788283251
51
314.02291446765713
0
ARC
5
122
100
AcDbEntity
8
0
100
AcDbCircle
10
-0.14972153618418624
20
-0.22623362662136293
30
0
40
0.027020540635007761
100
AcDbArc
50
75.856801244120206
51
202.42847855107129
0
LINE
5
123
100
AcDbEntity
8
0
100
AcDbLine
10
-0.11999999854977675
20
-0.24999999697870154
30
0
11
-0.059999999274888374
21
-0.22999999722040543
31
0
0
LINE
5
124
100
AcDbEntity
8
0
100
AcDbLine
10
-0.14311917009080097
20
-0.20003213089732033
30
0
11
-0.06999999915403643
21
-0.17999999782466511
31
0
0
LINE
5
125
100
AcDbEntity
8
0
100
AcDbLine
10
-0.31582810503781628
20
-0.47735886260625621
30
0
11
-0.31582810503781628
21
0.13999999830807286
31
0
0
ARC
5
126
100
AcDbEntity
8
0
100
AcDbCircle
10
-0.33291405040399918
20
0.08187108065156723
30
0
40
0.06058795752435462
100
AcDbArc
50
73.620253391641128
51
141.00038844360066
0
LINE
5
127
100
AcDbEntity
8
0
100
AcDbLine
10
-0.31582810503781628
20
0.13999999830807286
30
0
11
-0.10999999867062868
21
0.03999999951659225
31
0
0
LINE
5
128
100
AcDbEntity
8
0
100
AcDbLine
10
-0.10999999867062868
20
0.03999999951659225
30
0
11
-0.089999998912332554
21
-0.18547930853727898
31
0
0
LINE
5
129
100
AcDbEntity
8
0
100
AcDbLine
10
-0.089999998912332554
20
-0.25999999685784964
30
0
11
-0.089999998912332554
21
-0.2399999970995535
31
0
0
ARC
5
130
100
AcDbEntity
8
0
100
AcDbCircle
10
0.40332053957921732
20
-0.073339762391284216
30
0
40
0.48908930769418235
100
AcDbArc
50
198.68167818507516
51
261.47721996882206
0
ARC
5
131
100
AcDbEntity
8
0
100
AcDbCircle
10
0.41669872977811023
20
-0.13421123935766005
30
0
40
0.48884789367053327
100
AcDbArc
50
100.11605459204151
51
185.37458391811003
0
ARC
5
132
100
AcDbEntity
8
0
100
AcDbCircle
10
0.53260059147797778
20
0.30427331235757987
30
0
40
0.20624644355107366
100
AcDbArc
50
123.53527421035039
51
168.03332152477492
0
ARC
5
133
100
AcDbEntity
8
0
100
AcDbCircle
10
0.66992117824997377
20
-0.10233181466524859
30
0
40
0.63072884793767359
100
AcDbArc
50
55.948319747710507
51
113.47612443843761
0
LINE
5
134
100
AcDbEntity
8
0
100
AcDbLine
10
1.0230917794731349
20
0.42024775444595924
30
0
11
0.94387845712868579
21
0.22993907146188347
31
0
0
LINE
5
135
100
AcDbEntity
8
0
100
AcDbLine
10
0.94387845712868579
20
0.22993907146188347
30
0
11
0.91804802592940871
21
0.26610167514087113
31
0
0
LINE
5
136
100
AcDbEntity
8
0
100
AcDbLine
10
0.91804802592940871
20
0.26610167514087113
30
0
11
0.98348511830091023
21
0.44493095139920558
31
0
0
ARC
5
137
100
AcDbEntity
8
0
100
AcDbCircle
10
0.75962138124051048
20
-0.053456082460781568
30
0
40
0.35667374754918385
100
AcDbArc
50
63.629238264803234
51
148.71115028459394
0
LINE
5
138
100
AcDbEntity
8
0
100
AcDbLine
10
0.94387845712868579
20
0.22993907146188347
30
0
11
0.85261093355790729
21
0.2480203733013773
31
0
0
LINE
5
139
100
AcDbEntity
8
0
100
AcDbLine
10
0.85261093355790729
20
0.2480203733013773
30
0
11
0.67351994390958747
21
0.2480203733013773
31
0
0
LINE
5
140
100
AcDbEntity
8
0
100
AcDbLine
10
0.67351994390958747
20
0.2480203733013773
30
0
11
0.40000001276571917
21
0
31
0
0
LINE
5
141
100
AcDbEntity
8
0
100
AcDbLine
10
0.40000001276571917
20
0
30
0
11
0.37785940949179242
21
0.024416930764028143
31
0
0
ARC
5
142
100
AcDbEntity
8
0
100
AcDbCircle
10
0.34967454484241794
20
0.11213965967211879
30
0
40
0.092139371402163994
100
AcDbArc
50
-72.188053432880878
51
64.783415636242623
0
ARC
5
143
100
AcDbEntity
8
0
100
AcDbCircle
10
0.33309233396398474
20
0.12567112531782337
30
0
40
0.08940735125802679
100
AcDbArc
50
51.352461743783401
51
217.28298811716229
0
ARC
5
144
100
AcDbEntity
8
0
100
AcDbCircle
10
0.33445119235349391
20
0.13155609899421022
30
0
40
0.087213027119101214
100
AcDbArc
50
-79.947315464457475
51
41.759107338962345
0
ARC
5
145
100
AcDbEntity
8
0
100
AcDbCircle
10
0.89089775354806455
20
0.056393119004961863
30
0
40
0.54132918802406671
100
AcDbArc
50
181.13376893870679
51
256.15321505566226
0
ARC
5
146
100
AcDbEntity
8
0
100
AcDbCircle
10
0.92751918403581035
20
-0.17080696620226113
30
0
40
0.34154873083788118
100
AcDbArc
50
240.88683996890396
51
299.11316003109602
0
ARC
5
147
100
AcDbEntity
8
0
100
AcDbCircle
10
0.92362286063328491
20
-0.46393464560122094
30
0
40
0.17015372680987442
100
AcDbArc
50
-1.7748328298354827
51
60.429191810749195
0
ARC
5
148
100
AcDbEntity
8
0
100
AcDbCircle
10
0.42981087556193831
20
0.40527099835843911
30
0
40
1.0979297093009355
100
AcDbArc
50
277.70884935779918
51
307.2050286420851
0
ARC
5
149
100
AcDbEntity
8
0
100
AcDbCircle
10
0.73855598164839009
20
-0.06989508685898714
30
0
40
0.63375597292056562
100
AcDbArc
50
196.5580383659829
51
255.23932887549304
0
ARC
5
150
100
AcDbEntity
8
0
100
AcDbCircle
10
0.48427791138751747
20
-0.2064478209403032
30
0
40
0.35593446527348316
100
AcDbArc
50
128.65410653109709
51
187.11056081492802
0
LINE
5
151
100
AcDbEntity
8
0
100
AcDbLine
10
0.97538312803065774
20
-0.34411093823914479
30
0
11
1.0500000335100128
21
-0.40000001276571917
31
0
0
ARC
5
152
100
AcDbEntity
8
0
100
AcDbCircle
10
0.9681572207018101
20
-0.39509422479123429
30
0
40
0.081989711330197418
100
AcDbArc
50
237.10029653586125
51
356.56970453881399
0
ARC
5
153
100
AcDbEntity
8
0
100
AcDbCircle
10
0.93115823586782043
20
0.10219035353703804
30
0
40
0.56617514651317857
100
AcDbArc
50
204.67946611296637
51
269.23741275474543
0
ARC
5
154
100
AcDbEntity
8
0
100
AcDbCircle
10
0.9054473898150377
20
0.069525337191888081
30
0
40
0.52951283772163993
100
AcDbArc
50
184.88686466300845
51
202.62898426077172
0
LINE
5
155
100
AcDbEntity
8
0
100
AcDbLine
10
1.1294756502280545
20
0.0030613708080020666
30
0
11
1.2334416893009967
21
0.040192099048338606
31
0
0
LINE
5
156
100
AcDbEntity
8
0
100
AcDbLine
10
1.2334416893009967
20
0.040192099048338606
30
0
11
1.285424708837468
21
0.021626734928170337
31
0
0
LINE
5
157
100
AcDbEntity
8
0
100
AcDbLine
10
1.285424708837468
20
0.021626734928170337
30
0
11
1.1334743440385522
21
-0.032641252500013818
31
0
0
LINE
5
158
100
AcDbEntity
8
0
100
AcDbLine
10
1.285424708837468
20
0.021626734928170337
30
0
11
1.3151292914297372
21
0.24255456795817293
31
0
0
LINE
5
159
100
AcDbEntity
8
0
100
AcDbLine
10
1.3151292914297372
20
0.24255456795817293
30
0
11
1.285424708837468
21
0.24654846141595702
31
0
0
LINE
5
160
100
AcDbEntity
8
0
100
AcDbLine
10
1.285424708837468
20
0.24654846141595702
30
0
11
1.2334416893009967
21
0.040192099048338606
31
0
0
ARC
5
161
100
AcDbEntity
8
0
100
AcDbCircle
10
1.1000000351057275
20
0.56573790370629573
30
0
40
0.36913982404793433
100
AcDbArc
50
262.21535604808304
51
300.15331416278201
0
ARC
5
162
100
AcDbEntity
8
0
100
AcDbCircle
10
0.64031869122920371
20
0.0192821448766663
30
0
40
0.4958815756740228
100
AcDbArc
50
295.10082131116934
51
353.98958342356588
0
ARC
5
163
100
AcDbEntity
8
0
100
AcDbCircle
10
0.8145182347106793
20
-0.012401232760715761
30
0
40
0.31533674967962078
100
AcDbArc
50
2.8106376579164118
51
62.616609636747619
0
LINE
5
164
100
AcDbEntity
8
0
100
AcDbLine
10
0.85067780637356627
20
-0.429769722693921
30
0
11
0.8262665898458611
21
-0.45418365657129095
31
0
0
ARC
5
165
100
AcDbEntity
8
0
100
AcDbCircle
10
0.86044795875758406
20
-0.40460364054482911
30
0
40
0.080628755582805689
100
AcDbArc
50
156.47464224597829
51
211.31150210423331
0
ARC
5
166
100
AcDbEntity
8
0
100
AcDbCircle
10
0.53073611222837103
20
-0.15356878519221884
30
0
40
0.17380657143733144
100
AcDbArc
50
279.5443691946536
51
313.32906137830406
0
ARC
5
167
100
AcDbEntity
8
0
100
AcDbCircle
10
0.42363149056907684
20
0.39838357277296321
30
0
40
0.6417797443704758
100
AcDbArc
50
275.10511356602132
51
310.44905292727839
0
ARC
5
168
100
AcDbEntity
8
0
100
AcDbCircle
10
0.23590318880398811
20
1.0181936043850837
30
0
40
1.2621513409339868
100
AcDbArc
50
280.56743919951072
51
298.59561716724153
0
ARC
5
169
100
AcDbEntity
8
0
100
AcDbCircle
10
0.84889363672213836
20
-0.08638521719690824
30
0
40
0.22646968558374991
100
AcDbArc
50
152.18715006129094
51
203.60142194985738
0
ARC
5
170
100
AcDbEntity
8
0
100
AcDbCircle
10
0.84787413119688115
20
-0.011496565635480483
30
0
40
0.20165035863970415
100
AcDbArc
50
92.237882445146383
51
171.2203955194901
0
ARC
5
171
100
AcDbEntity
8
0
100
AcDbCircle
10
0.81999999009014113
20
0.10999999867062868
30
0
40
0.082462111515782602
100
AcDbArc
50
-14.036243467926484
51
75.963756532073589
0
ARC
5
172
100
AcDbEntity
8
0
100
AcDbCircle
10
-0.35582990021334415
20
0.24265560416376356
30
0
40
1.2650740866707195
100
AcDbArc
50
345.69142082831814
51
353.06926861937148
0
LINE
5
173
100
AcDbEntity
8
0
100
AcDbLine
10
0.84889363672213836
20
-0.08638521719690824
30
0
11
0.85999998960673329
21
-0.10999999867062868
31
0
0
ARC
5
174
100
AcDbEntity
8
0
100
AcDbCircle
10
0.68997824999879409
20
-0.099081025319548016
30
0
40
0.17037199276392687
100
AcDbArc
50
314.78663897093759
51
356.32545146822929
0
ARC
5
175
100
AcDbEntity
8
0
100
AcDbCircle
10
0.78516534421775719
20
-0.12811574604633919
30
0
40
0.095181275877333132
100
AcDbArc
50
-74.875374058852685
51
4.8913336617352998
0
LINE
5
176
100
AcDbEntity
8
0
100
AcDbLine
10
0.87999998936502943
20
-0.11999999854977675
30
0
11
0.88999998924417756
21
-0.11999999854977675
31
0
0
LINE
5
177
100
AcDbEntity
8
0
100
AcDbLine
10
0.88999998924417756
20
-0.11999999854977675
30
0
11
0.88999998924417756
21
-0.24999999697870154
31
0
0
ARC
5
178
100
AcDbEntity
8
0
100
AcDbCircle
10
0.99166665468218296
20
-0.33499999595146007
30
0
40
0.13251834094438494
100
AcDbArc
50
140.10216525235822
51
186.49934627965459
0
LINE
5
179
100
AcDbEntity
8
0
100
AcDbLine
10
0.85999998960673329
20
-0.34999999577018215
30
0
11
0.90999998900247359
21
-0.27999999661614572
31
0
0
ARC
5
180
100
AcDbEntity
8
0
100
AcDbCircle
10
0.65705331276260237
20
0.082578343386708553
30
0
40
0.44209170277220139
100
AcDbArc
50
304.90090591249884
51
332.72724375608175
0
LINE
5
181
100
AcDbEntity
8
0
100
AcDbLine
10
1.0499999873105466
20
-0.11999999854977675
30
0
11
1.0599999871896946
21
0.0099999998791480624
31
0
0
ARC
5
182
100
AcDbEntity
8
0
100
AcDbCircle
10
0.99499998797523181
20
0.014999999818721939
30
0
40
0.065192023264168578
100
AcDbArc
50
-4.3987053549952702
51
57.528807709151387
0
ARC
5
183
100
AcDbEntity
8
0
100
AcDbCircle
10
1.0790146169588051
20
-0.10263688563372468
30
0
40
0.17946010109515878
100
AcDbArc
50
105.85017121068464
51
175.96211101685631
0
LINE
5
184
100
AcDbEntity
8
0
100
AcDbLine
10
0.89999998912332557
20
-0.089999998912332554
30
0
11
0.86999998948588142
21
-0.06999999915403643
31
0
0
ARC
5
185
100
AcDbEntity
8
0
100
AcDbCircle
10
1.0534583258328849
20
-0.35584875593351573
30
0
40
0.2674514299206
100
AcDbArc
50
183.5523715257458
51
200.44090906332042
0
ARC
5
186
100
AcDbEntity
8
0
100
AcDbCircle
10
0.46111914895379541
20
0.2038080722931597
30
0
40
0.5193709853911983
100
AcDbArc
50
278.97795171540059
51
291.32589688022472
0
LINE
5
187
100
AcDbEntity
8
0
100
AcDbLine
10
-0.34999999577018215
20
-0.50999999383655115
30
0
11
-0.51999999371569927
21
-0.59999999274888371
31
0
0
LINE
5
188
100
AcDbEntity
8
0
100
AcDbLine
10
-0.43999999468251472
20
-0.65999999202377213
30
0
11
-0.37999999540762636
21
-0.62999999238632787
31
0
0
LINE
5
189
100
AcDbEntity
8
0
100
AcDbLine
10
-0.40089563274238416
20
-0.69654671095536558
30
0
11
-0.32999999601188607
21
-0.64999999214462401
31
0
0
LINE
5
190
100
AcDbEntity
8
0
100
AcDbLine
10
-0.33393133699097177
20
-0.71220164646836148
30
0
11
-0.31570018706992875
21
-0.6898125051735674
31
0
0
LINE
5
191
100
AcDbEntity
8
0
100
AcDbLine
10
-0.25940264272282471
20
-0.72962498960284106
30
0
11
-0.13556631838972744
21
-0.60181970996872858
31
0
0
LWPOLYLINE
5
192
100
AcDbEntity
8
0
100
AcDbPolyline
90
10
70
1
43
0.0
10
1.2625519545574508
20
0.39297760041509
10
1.3755481349616536
20
0.36786733810304512
10
1.3799999833224326
20
0.41999999492421858
10
1.309999984168396
20
0.41999999492421858
10
1.3203382544543607
20
0.49476404422646009
10
1.3799999833224326
20
0.49476404422646009
10
1.3799999833224326
20
0.51669649053582667
10
1.3028858433236603
20
0.51669649053582667
10
1.2641481007132025
20
0.52530487778259505
10
1.2099999853769154
20
0.41999999492421858
0
LINE
5
193
100
AcDbEntity
8
0
100
AcDbLine
10
1.3028858433236603
20
0.51669649053582667
30
0
11
1.256401911872602
21
0.39613997248733429
31
0
0
LINE
5
194
100
AcDbEntity
8
0
100
AcDbLine
10
1.3793198559409439
20
0.41203547221356029
30
0
11
1.4499999824764689
21
0.41203547221356029
31
0
0
LINE
5
195
100
AcDbEntity
8
0
100
AcDbLine
10
1.4499999824764689
20
0.41203547221356029
30
0
11
1.4499999824764689
21
0.35132248309975289
31
0
0
LINE
5
196
100
AcDbEntity
8
0
100
AcDbLine
10
1.4499999824764689
20
0.35132248309975289
30
0
11
1.8465919697704134
21
0.26319093036776581
31
0
0
LINE
5
197
100
AcDbEntity
8
0
100
AcDbLine
10
1.8465919697704134
20
0.26319093036776581
30
0
11
2.0392223547797488
21
0.26319093036776581
31
0
0
LINE
5
198
100
AcDbEntity
8
0
100
AcDbLine
10
2.0392223547797488
20
0.26319093036776581
30
0
11
2.0490147495277471
21
0.30725670673375932
31
0
0
LINE
5
199
100
AcDbEntity
8
0
100
AcDbLine
10
2.0490147495277471
20
0.30725670673375932
30
0
11
1.9429071622750813
21
0.33083617056768422
31
0
0
ARC
5
200
100
AcDbEntity
8
0
100
AcDbCircle
10
1.9988809701419268
20
0.41366885739937442
30
0
40
0.099971601842080093
100
AcDbArc
50
91.673758217118746
51
235.95131962234257
0
LINE
5
201
100
AcDbEntity
8
0
100
AcDbLine
10
1.9959609559014144
20
0.513597805616128
30
0
11
2.2648476520610155
21
0.513597805616128
31
0
0
LINE
5
202
100
AcDbEntity
8
0
100
AcDbLine
10
2.0490147495277471
20
0.30725670673375932
30
0
11
2.2244426508429198
21
0.28136658022583938
31
0
0
LINE
5
203
100
AcDbEntity
8
0
100
AcDbLine
10
1.8465919697704134
20
0.26319093036776581
30
0
11
1.9000000606371661
21
0.70000002234000858
31
0
0
LINE
5
204
100
AcDbEntity
8
0
100
AcDbLine
10
1.9000000606371661
20
0.70000002234000858
30
0
11
2.1000000670200256
21
0.6000000191485787
31
0
0
LINE
5
205
100
AcDbEntity
8
0
100
AcDbLine
10
2.1000000670200256
20
0.6000000191485787
30
0
11
2.1000000670200256
21
0.513597805616128
31
0
0
LINE
5
206
100
AcDbEntity
8
0
100
AcDbLine
10
1.9000000606371661
20
0.70000002234000858
30
0
11
1.5086435700189351
21
0.65000002074429364
31
0
0
LINE
5
207
100
AcDbEntity
8
0
100
AcDbLine
10
1.5086435700189351
20
0.65000002074429364
30
0
11
1.4499999824764689
21
0.41203547221356029
31
0
0
LINE
5
208
100
AcDbEntity
8
0
100
AcDbLine
10
1.4709010212499956
20
0.49684792083744389
30
0
11
1.3799999833224326
21
0.49476404422646009
31
0
0
LINE
5
209
100
AcDbEntity
8
0
100
AcDbLine
10
1.4172703947639875
20
0.49580598253195196
30
0
11
1.3899999832015806
21
0.60999999262803173
31
0
0
LINE
5
210
100
AcDbEntity
8
0
100
AcDbLine
10
1.5995062909568245
20
0.66160871077702721
30
0
11
1.5995062909568245
21
0.67999999178206816
31
0
0
LINE
5
211
100
AcDbEntity
8
0
100
AcDbLine
10
1.5995062909568245
20
0.67999999178206816
30
0
11
1.4899999819930612
21
0.68999999166121628
31
0
0
LINE
5
212
100
AcDbEntity
8
0
100
AcDbLine
10
1.7382772909755995
20
0.34483757475423582
30
0
11
1.5409319653594384
21
0.36896673615755793
31
0
0
LINE
5
213
100
AcDbEntity
8
0
100
AcDbLine
10
1.7414271126933611
20
0.40468418739170892
30
0
11
1.6212201896674701
21
0.41938173464007872
31
0
0
LINE
5
214
100
AcDbEntity
8
0
100
AcDbLine
10
2.4999999697870154
20
0.19999999758296125
30
0
11
2.4749999700891454
21
0.024999999697870156
31
0
0
ARC
5
215
100
AcDbEntity
8
0
100
AcDbCircle
10
2.4804543277160254
20
-0.074149986615926367
30
0
40
0.099299898303814721
100
AcDbArc
50
93.148734666578591
51
235.00937159923888
0
ARC
5
216
100
AcDbEntity
8
0
100
AcDbCircle
10
2.4492557607234131
20
-0.096922713192763077
30
0
40
0.063985794562669257
100
AcDbArc
50
246.27529391626734
51
293.7247060837326
0
ARC
5
217
100
AcDbEntity
8
0
100
AcDbCircle
10
2.4274062218595365
20
-0.06525050827983743
30
0
40
0.10203097108612491
100
AcDbArc
50
-62.19500610043692
51
62.195006100436913
0
CIRCLE
5
218
100
AcDbEntity
8
0
100
AcDbCircle
10
2.4499999703912754
20
-0.06999999915403643
30
0
40
0.019999999758296125
0
ARC
5
219
100
AcDbEntity
8
0
100
AcDbCircle
10
2.5409384193237115
20
0.34593128787300154
30
0
40
0.32301419928512509
100
AcDbArc
50
148.73020642812563
51
191.53005580768055
0
ARC
5
220
100
AcDbEntity
8
0
100
AcDbCircle
10
2.3363319179980091
20
0.34069363157115218
30
0
40
0.12664480694379968
100
AcDbArc
50
207.93387892470008
51
270.42472311403327
0
ARC
5
221
100
AcDbEntity
8
0
100
AcDbCircle
10
2.4665884885670168
20
0.36149535016820217
30
0
40
0.1961186915651951
100
AcDbArc
50
117.32607289351016
51
228.74699005351374
0
ARC
5
222
100
AcDbEntity
8
0
100
AcDbCircle
10
2.544060478757979
20
0.35833418711756282
30
0
40
0.18356129767558574
100
AcDbArc
50
104.893425932168
51
231.81462557086533
0
ARC
5
223
100
AcDbEntity
8
0
100
AcDbCircle
10
2.5731496330242858
20
0.34690900630250665
30
0
40
0.16411316240535229
100
AcDbArc
50
100.20965501409151
51
243.53014027759647
0
ARC
5
224
100
AcDbEntity
8
0
100
AcDbCircle
10
2.6738748660296006
20
0.34842542980931918
30
0
40
0.16861891571507892
100
AcDbArc
50
115.98378841302147
51
241.67155564768404
0
ARC
5
225
100
AcDbEntity
8
0
100
AcDbCircle
10
2.6273577159551325
20
0.2985408013085577
30
0
40
0.10407845408107899
100
AcDbArc
50
251.2256612113253
51
354.64438555675616
0
ARC
5
226
100
AcDbEntity
8
0
100
AcDbCircle
10
2.6109979327606858
20
0.36061358432631418
30
0
40
0.13981963389537985
100
AcDbArc
50
-30.892363502484962
51
94.5113975957223
0
LWPOLYLINE
5
227
100
AcDbEntity
8
0
100
AcDbPolyline
90
4
70
1
43
0.0
10
2.6909469821740766
20
0.3099184783506776
42
-1.0917412589714923
10
2.5624174893635332
20
0.35867989906807773
10
2.589999968699348
20
0.42999999480336659
42
-0.41826294853366675
10
2.63899427378928
20
0.45126359654785814
42
-0.47427183268157547
0
ARC
5
228
100
AcDbEntity
8
0
100
AcDbCircle
10
1.5907512851316452
20
0.68075129612917162
30
0
40
0.19894822824125707
100
AcDbArc
50
1.4827940255927685
51
53.173376499085016
0
ARC
5
229
100
AcDbEntity
8
0
100
AcDbCircle
10
1.6649999798781523
20
0.60499999268845761
30
0
40
0.23926971938848698
100
AcDbArc
50
79.159694545669453
51
116.02959219151343
0
ARC
5
230
100
AcDbEntity
8
0
100
AcDbCircle
10
1.7471256675889189
20
1.6509426453225751
30
0
40
0.85175214634954255
100
AcDbArc
50
257.30888057823091
51
267.50183268458619
0
ARC
5
231
100
AcDbEntity
8
0
100
AcDbCircle
10
1.5021405559652301
20
0.68785622133468038
30
0
40
0.23618163520523638
100
AcDbArc
50
-2.0702410127658659
51
28.347632264256319
0
ARC
5
232
100
AcDbEntity
8
0
100
AcDbCircle
10
1.6295089907704585
20
0.72573616818660724
30
0
40
0.074870131276944127
100
AcDbArc
50
-45.737353176486025
51
97.296656559552375
0
ARC
5
233
100
AcDbEntity
8
0
100
AcDbCircle
10
1.5120337471890839
20
0.73428051562109498
30
0
40
0.1895604327867465
100
AcDbArc
50
35.465350611481163
51
119.04598795619677
0
ARC
5
234
100
AcDbEntity
8
0
100
AcDbCircle
10
1.302195106213939
20
0.75353657625921799
30
0
40
0.18568990224878731
100
AcDbArc
50
-50.6232238265424
51
71.862534378852715
0
ARC
5
235
100
AcDbEntity
8
0
100
AcDbCircle
10
1.4413440686025827
20
0.83381719422423262
30
0
40
0.12596821081367979
100
AcDbArc
50
130.22199846508499
51
235.50281198713847
0
ARC
5
236
100
AcDbEntity
8
0
100
AcDbCircle
10
1.4049999830203026
20
0.66499999196334614
30
0
40
0.057008770565994848
100
AcDbArc
50
232.12501634890191
51
285.25511870305792
0
ARC
5
237
100
AcDbEntity
8
0
100
AcDbCircle
10
1.2136555915146807
20
0.81728609712359757
30
0
40
0.080911468174828652
100
AcDbArc
50
213.31193352421136
51
288.79505709677051
0
ARC
5
238
100
AcDbEntity
8
0
100
AcDbCircle
10
1.2435852495304902
20
0.84002957813320611
30
0
40
0.11844199300545541
100
AcDbArc
50
104.63702519409379
51
214.55491476461992
0
ARC
5
239
100
AcDbEntity
8
0
100
AcDbCircle
10
1.2280257722978316
20
0.84806073482678446
30
0
40
0.052517245587758471
100
AcDbArc
50
140.70169075547852
51
219.29830924452136
0
ARC
5
240
100
AcDbEntity
8
0
100
AcDbCircle
10
1.3339504231925574
20
0.83975234269417809
30
0
40
0.16380461018614034
100
AcDbArc
50
101.96191455399621
51
165.29859311869117
0
ARC
5
241
100
AcDbEntity
8
0
100
AcDbCircle
10
1.4602031183786262
20
0.82970856558752504
30
0
40
0.27238457497531016
100
AcDbArc
50
65.738187146252272
51
126.02585938377399
0
ARC
5
242
100
AcDbEntity
8
0
100
AcDbCircle
10
1.5604417959003423
20
0.94945003939724737
30
0
40
0.080443395669488188
100
AcDbArc
50
-25.579387945692929
51
81.647091728620282
0
ARC
5
243
100
AcDbEntity
8
0
100
AcDbCircle
10
1.5207068392168999
20
0.86248372893300962
30
0
40
0.17431333510356511
100
AcDbArc
50
72.842969644883439
51
157.21172102001671
0
LINE
5
244
100
AcDbEntity
8
0
100
AcDbLine
10
1.3699999834432846
20
0.61999999250717985
30
0
11
1.2397239741342463
21
0.74068906643828825
31
0
0
LINE
5
245
100
AcDbEntity
8
0
100
AcDbLine
10
1.2397239741342463
20
0.74068906643828825
30
0
11
1.1873848343970961
21
0.81479851525752667
31
0
0
LINE
5
246
100
AcDbEntity
8
0
100
AcDbLine
10
1.1840301877898629
20
0.87673911741589072
30
0
11
1.2288918776711173
21
0.90842228728086638
31
0
0
LINE
5
247
100
AcDbEntity
8
0
100
AcDbLine
10
1.1755085267100731
20
0.88132295439604236
30
0
11
1.1786403711833116
21
0.86592531545110696
31
0
0
LINE
5
248
100
AcDbEntity
8
0
100
AcDbLine
10
1.5721277991990592
20
1.0780354117152129
30
0
11
1.55725753498557
21
1.0329219448171063
31
0
0
LINE
5
249
100
AcDbEntity
8
0
100
AcDbLine
10
1.3000000414885873
20
1.0500000335100128
30
0
11
1.3000000414885873
21
1.0000000319142979
31
0
0
LINE
5
250
100
AcDbEntity
8
0
100
AcDbLine
10
1.3000000414885873
20
0.89807221958864258
30
0
11
1.3000000414885873
21
1.0000000319142979
31
0
0
LINE
5
251
100
AcDbEntity
8
0
100
AcDbLine
10
1.3000000414885873
20
0.89807221958864258
30
0
11
1.309999984168396
21
0.809999990210993
31
0
0
LINE
5
252
100
AcDbEntity
8
0
100
AcDbLine
10
1.309999984168396
20
0.809999990210993
30
0
11
1.3199999840475443
21
0.79999999033184499
31
0
0
LINE
5
253
100
AcDbEntity
8
0
100
AcDbLine
10
0.72804800193979413
20
0.52571289074075778
30
0
11
0.87804904407311946
21
0.73547531761525109
31
0
0
ARC
5
254
100
AcDbEntity
8
0
100
AcDbCircle
10
1.0884119939321615
20
0.20657241834573997
30
0
40
0.56920193914734074
100
AcDbArc
50
84.189375194018254
51
111.68942433834617
0
ARC
5
255
100
AcDbEntity
8
0
100
AcDbCircle
10
1.1402546826923472
20
0.4531184827338805
30
0
40
0.45412773532095857
100
AcDbArc
50
89.270262363203443
51
135.24668215085896
0
LINE
5
256
100
AcDbEntity
8
0
100
AcDbLine
10
0.81775832066665688
20
0.77284977064286342
30
0
11
0.70518842487474387
21
0.6593063570347546
31
0
0
ARC
5
257
100
AcDbEntity
8
0
100
AcDbCircle
10
-0.33044293927224855
20
-0.01574956496971168
30
0
40
1.2362171412168046
100
AcDbArc
50
33.097527897973393
51
52.162741257020095
0
ARC
5
258
100
AcDbEntity
8
0
100
AcDbCircle
10
1.0230859317804191
20
0.64495023060637946
30
0
40
0.31822150031522267
100
AcDbArc
50
177.41430191750553
51
202.005722449563
0
ARC
5
259
100
AcDbEntity
8
0
100
AcDbCircle
10
-2.2815075921193633
20
-5.1558725524174456
30
0
40
6.245880460840131
100
AcDbArc
50
64.385643038270558
51
70.054872700871414
0
ARC
5
260
100
AcDbEntity
8
0
100
AcDbCircle
10
1.46764332230251
20
6.1801790730056068
30
0
40
5.6519333064819275
100
AcDbArc
50
253.89705197037458
51
259.1114745458118
0
ARC
5
261
100
AcDbEntity
8
0
100
AcDbCircle
10
-1.724833981331733
20
-1.5506642358680545
30
0
40
3.0447029254208129
100
AcDbArc
50
45.74292413277022
51
51.006935416125032
0
ARC
5
262
100
AcDbEntity
8
0
100
AcDbCircle
10
0.3713286997781165
20
0.78688510962049163
30
0
40
0.18265011311470611
100
AcDbArc
50
71.964499430995474
51
170.90839777979329
0
ARC
5
263
100
AcDbEntity
8
0
100
AcDbCircle
10
-0.11319414739447266
20
0.7146571446039387
30
0
40
0.037725383506490552
100
AcDbArc
50
69.528475647331462
51
178.90450496242946
0
ARC
5
264
100
AcDbEntity
8
0
100
AcDbCircle
10
-0.12698132311642465
20
0.739224288327329
30
0
40
0.059272795426937301
100
AcDbArc
50
76.54948536777357
51
236.14708034022951
0
ARC
5
265
100
AcDbEntity
8
0
100
AcDbCircle
10
-0.11960457662397268
20
0.77091792891429178
30
0
40
0.028668764329220435
100
AcDbArc
50
-46.856303640589459
51
64.861552662673731
0
ARC
5
266
100
AcDbEntity
8
0
100
AcDbCircle
10
-0.14499999824764689
20
0.72981896799106061
30
0
40
0.042550568392424215
100
AcDbArc
50
249.35836706010764
51
318.37286478971845
0
ARC
5
267
100
AcDbEntity
8
0
100
AcDbCircle
10
-0.66442733485584315
20
0.93263613526658318
30
0
40
0.57330856031550403
100
AcDbArc
50
-13.698302497817076
51
1.396169420301052
0
ARC
5
268
100
AcDbEntity
8
0
100
AcDbCircle
10
-0.20999999746210921
20
0.69131575383893973
30
0
40
0.28154023244619364
100
AcDbArc
50
65.061291332419486
51
98.167970548320085
0
ARC
5
269
100
AcDbEntity
8
0
100
AcDbCircle
10
-0.22460238358696838
20
1.0581413584996457
30
0
40
0.11479277229571104
100
AcDbArc
50
230.27940778054577
51
283.67986510527402
0
ARC
5
270
100
AcDbEntity
8
0
100
AcDbCircle
10
-0.3999999951659225
20
0.85071427543323863
30
0
40
0.19164832570334889
100
AcDbArc
50
38.49305732933751
51
99.005931656396015
0
ARC
5
271
100
AcDbEntity
8
0
100
AcDbCircle
10
-0.35143567308712759
20
0.97969589596998397
30
0
40
0.099040073171011711
100
AcDbArc
50
142.49101940394874
51
199.70617844881772
0
ARC
5
272
100
AcDbEntity
8
0
100
AcDbCircle
10
-0.37844845024690948
20
0.87999998936502943
30
0
40
0.093710646206774995
100
AcDbArc
50
134.96844869435114
51
192.32301992666285
0
ARC
5
273
100
AcDbEntity
8
0
100
AcDbCircle
10
-0.40668069239268922
20
0.80167016463853646
30
0
40
0.086091245068108974
100
AcDbArc
50
137.34868786258653
51
224.23144153283246
0
ARC
5
274
100
AcDbEntity
8
0
100
AcDbCircle
10
-0.20882950104913556
20
1.4851460382854411
30
0
40
0.78752532928289432
100
AcDbArc
50
250.75784184332207
51
272.81760637547018
0
ARC
5
275
100
AcDbEntity
8
0
100
AcDbCircle
10
-0.23977246006007147
20
0.85481058760135797
30
0
40
0.12522894030943513
100
AcDbArc
50
244.67516839351245
51
295.32483160648752
0
ARC
5
276
100
AcDbEntity
8
0
100
AcDbCircle
10
-0.21699714064586209
20
0.87606827398624409
30
0
40
0.11857395782504845
100
AcDbArc
50
219.60208111200711
51
287.53344323413489
0
ARC
5
277
100
AcDbEntity
8
0
100
AcDbCircle
10
-0.17336289817957529
20
0.86875568069612685
30
0
40
0.088819376417082124
100
AcDbArc
50
209.66707737248518
51
272.16986499867073
0
ARC
5
278
100
AcDbEntity
8
0
100
AcDbCircle
10
-0.28069282606498819
20
0.99147859121197346
30
0
40
0.17009230804091174
100
AcDbArc
50
195.40336680543055
51
226.17909990685027
0
ARC
5
279
100
AcDbEntity
8
0
100
AcDbCircle
10
-0.43564972473198493
20
0.84499998978801127
30
0
40
0.037482542807661161
100
AcDbArc
50
156.41017499782845
51
256.06645395418758
0
ARC
5
280
100
AcDbEntity
8
0
100
AcDbCircle
10
0.46224602214970339
20
1.2017298978594204
30
0
40
0.3705664345357349
100
AcDbArc
50
284.9868875786147
51
321.04357545118449
0
ARC
5
281
100
AcDbEntity
8
0
100
AcDbCircle
10
1.027093312880218
20
-0.9955538928591342
30
0
40
1.9836887720130483
100
AcDbArc
50
98.017783334428898
51
105.83976793058793
0
ARC
5
282
100
AcDbEntity
8
0
100
AcDbCircle
10
0.91499870731901178
20
-0.17574136051928679
30
0
40
1.1846486172027462
100
AcDbArc
50
97.030522900234814
51
111.89003307049063
0
ARC
5
283
100
AcDbEntity
8
0
100
AcDbCircle
10
0.56660713600958557
20
0.98624998808097764
30
0
40
0.20385709659530762
100
AcDbArc
50
3.8674912313658578
51
91.857319220857548
0
ARC
5
284
100
AcDbEntity
8
0
100
AcDbCircle
10
0.55308509969883812
20
0.98627658382533723
30
0
40
0.2538176118071887
100
AcDbArc
50
26.618749174020511
51
88.438866244282522
0
LINE
5
285
100
AcDbEntity
8
0
100
AcDbLine
10
0.55999999323229144
20
1.1899999856186194
30
0
11
0.55999999323229144
21
1.2399999850143597
31
0
0
LINE
5
286
100
AcDbEntity
8
0
100
AcDbLine
10
0.76999999069440073
20
0.99999998791480615
30
0
11
0.77999999057354885
21
1.0999999867062868
31
0
0
LINE
5
287
100
AcDbEntity
8
0
100
AcDbLine
10
0.75040750749394292
20
0.96874397388818678
30
0
11
0.75040750749394292
21
0.99741765819068673
31
0
0
LINE
5
288
100
AcDbEntity
8
0
100
AcDbLine
10
0.55999999323229144
20
1.1899999856186194
30
0
11
0.38479365211840777
21
0.98308081603943687
31
0
0
LINE
5
289
100
AcDbEntity
8
0
100
AcDbLine
10
0.38479365211840777
20
0.98308081603943687
30
0
11
0.45878098451067245
21
1.2149999853164895
31
0
0
LINE
5
290
100
AcDbEntity
8
0
100
AcDbLine
10
0.45878098451067245
20
1.2149999853164895
30
0
11
0.45878098451067245
21
1.2599999847726557
31
0
0
LINE
5
291
100
AcDbEntity
8
0
100
AcDbLine
10
0.55999999323229144
20
1.2399999850143597
30
0
11
0.40690676004696763
21
1.0523961090106102
31
0
0
ARC
5
292
100
AcDbEntity
8
0
100
AcDbCircle
10
0.14889632829024976
20
1.1017943294979675
30
0
40
0.34995554518083449
100
AcDbArc
50
248.09014423222877
51
286.78546905512246
0
ARC
5
293
100
AcDbEntity
8
0
100
AcDbCircle
10
0.34873746303951902
20
0.57413745164797425
30
0
40
0.63777462440343091
100
AcDbArc
50
79.748111921671182
51
124.17347935029352
0
ARC
5
294
100
AcDbEntity
8
0
100
AcDbCircle
10
0.040509472928837442
20
1.1379327124149199
30
0
40
0.061701016029839628
100
AcDbArc
50
144.14743071264607
51
215.85256928735396
0
ARC
5
295
100
AcDbEntity
8
0
100
AcDbCircle
10
0.40444788016260941
20
0.23714700534850511
30
0
40
1.0242950276873168
100
AcDbArc
50
86.95935330500086
51
113.83664338382285
0
ARC
5
296
100
AcDbEntity
8
0
100
AcDbCircle
10
-0.090753689566065873
20
1.0000038646271339
30
0
40
0.10460430909652529
100
AcDbArc
50
103.31960189882932
51
195.38341075482461
0
ARC
5
297
100
AcDbEntity
8
0
100
AcDbCircle
10
0.0065737636697098239
20
0.93378299236208673
30
0
40
0.17918327154960761
100
AcDbArc
50
129.80430339456811
51
168.38909132955285
0
LINE
5
298
100
AcDbEntity
8
0
100
AcDbLine
10
-0.1081335258010663
20
1.0714379325040517
30
0
11
0.20363657969694463
21
0.94272569032050135
31
0
0
LINE
5
299
100
AcDbEntity
8
0
100
AcDbLine
10
0.20363657969694463
20
0.94272569032050135
30
0
11
-0.0095008525976199697
21
1.1017943294979675
31
0
0
LINE
5
300
100
AcDbEntity
8
0
100
AcDbLine
10
-0.1081335258010663
20
1.0714379325040517
30
0
11
-0.11485270910921309
21
1.1017943294979675
31
0
0
LINE
5
301
100
AcDbEntity
8
0
100
AcDbLine
10
0.097067863549662334
20
1.0222600099092345
30
0
11
-0.11485270910921309
21
1.1017943294979675
31
0
0
LINE
5
302
100
AcDbEntity
8
0
100
AcDbLine
10
0.01831133371185114
20
0.77711534527851578
30
0
11
0.14889632829024976
21
0.81476513013284435
31
0
0
LINE
5
303
100
AcDbEntity
8
0
100
AcDbLine
10
0.14889632829024976
20
0.81476513013284435
30
0
11
-0.11319414739447266
21
0.79687130094147562
31
0
0
LINE
5
304
100
AcDbEntity
8
0
100
AcDbLine
10
0.01831133371185114
20
0.77711534527851578
30
0
11
0.017851090447888553
21
0.80581821553715993
31
0
0
ARC
5
305
100
AcDbEntity
8
0
100
AcDbCircle
10
0.76633467302747971
20
1.250225353418225
30
0
40
0.5467851830739644
100
AcDbArc
50
143.59023668264317
51
180.5872892877664
0
ARC
5
306
100
AcDbEntity
8
0
100
AcDbCircle
10
0.94578523908960266
20
1.0301750361497874
30
0
40
0.85370187564573519
100
AcDbArc
50
148.67011684245466
51
167.20881429136551
0
ARC
5
307
100
AcDbEntity
8
0
100
AcDbCircle
10
1.5412394357516885
20
7.0541900424544304
30
0
40
5.7351989804841059
100
AcDbArc
50
249.32546694209211
51
256.64563927773696
0
ARC
5
308
100
AcDbEntity
8
0
100
AcDbCircle
10
-0.4156356817215574
20
1.8716925268058922
30
0
40
0.19555968889625092
100
AcDbArc
50
150.8757572942234
51
249.65563764767163
0
ARC
5
309
100
AcDbEntity
8
0
100
AcDbCircle
10
-0.29614507185376016
20
1.2919337606745096
30
0
40
0.73473177256931432
100
AcDbArc
50
66.725034056753444
51
113.27496594324657
0
ARC
5
310
100
AcDbEntity
8
0
100
AcDbCircle
10
-0.7127853568466469
20
1.1263837731807023
30
0
40
1.0982809461456939
100
AcDbArc
50
22.23147041300918
51
49.931600352280689
0
ARC
5
311
100
AcDbEntity
8
0
100
AcDbCircle
10
-0.56680186482779615
20
1.2454511335338427
30
0
40
0.95187119257522923
100
AcDbArc
50
20.241211100012734
51
55.156372529433959
0
ARC
5
312
100
AcDbEntity
8
0
100
AcDbCircle
10
-0.27300477846626381
20
1.6979167702027509
30
0
40
0.41303464019159392
100
AcDbArc
50
52.743666560577566
51
139.37014947815683
0
ARC
5
313
100
AcDbEntity
8
0
100
AcDbCircle
10
-0.71725506715662279
20
1.9052715504320188
30
0
40
1.3865534169955154
100
AcDbArc
50
325.91454888136286
51
338.18441227893015
0
ARC
5
314
100
AcDbEntity
8
0
100
AcDbCircle
10
0.15904750722609121
20
1.5193809779787031
30
0
40
0.49719065222424985
100
AcDbArc
50
325.74586192774444
51
341.30301565666082
0
ARC
5
315
100
AcDbEntity
8
0
100
AcDbCircle
10
3.5189259484543687
20
19.903837427833327
30
0
40
18.767519823852037
100
AcDbArc
50
261.14512633184671
51
263.54264903093406
0
ARC
5
316
100
AcDbEntity
8
0
100
AcDbCircle
10
1.3877678317631701
20
1.4749155088447548
30
0
40
0.22048847331744831
100
AcDbArc
50
275.33356192960292
51
359.48328762102005
0
ARC
5
317
100
AcDbEntity
8
0
100
AcDbCircle
10
1.2999083372677147
20
1.2510156611066165
30
0
40
0.37989159709855497
100
AcDbArc
50
35.742547828664918
51
76.627841919333292
0
ARC
5
318
100
AcDbEntity
8
0
100
AcDbCircle
10
1.1908473838504781
20
0.75365145788099552
30
0
40
0.88903932886298964
100
AcDbArc
50
77.202966047632188
51
134.29358298548314
0
ARC
5
319
100
AcDbEntity
8
0
100
AcDbCircle
10
1.1693599177627632
20
1.7067081459228439
30
0
40
0.234766458019561
100
AcDbArc
50
275.25145950995767
51
338.48474071476937
0
ARC
5
320
100
AcDbEntity
8
0
100
AcDbCircle
10
-0.72957494541905654
20
11.227809050885766
30
0
40
9.9421196858459595
100
AcDbArc
50
277.85976833993095
51
281.13727054831628
0
ARC
5
321
100
AcDbEntity
8
0
100
AcDbCircle
10
1.1183588105591737
20
1.6544596803710809
30
0
40
0.44973559378279448
100
AcDbArc
50
215.01523992698054
51
225.46401977019954
0
ARC
5
322
100
AcDbEntity
8
0
100
AcDbCircle
10
1.078338009360849
20
1.5172963399605739
30
0
40
0.22842381689765165
100
AcDbArc
50
206.37707815883252
51
246.46308819555708
0
ARC
5
323
100
AcDbEntity
8
0
100
AcDbCircle
10
1.2689170823166607
20
1.5384789398944978
30
0
40
0.26879175789031196
100
AcDbArc
50
201.35751708167479
51
253.11529449059552
0
ARC
5
324
100
AcDbEntity
8
0
100
AcDbCircle
10
1.6304969528585043
20
1.7669817430327204
30
0
40
0.52892331968019513
100
AcDbArc
50
213.77613766567171
51
251.14458032037436
0
ARC
5
325
100
AcDbEntity
8
0
100
AcDbCircle
10
1.2395998994473727
20
1.2087641294742157
30
0
40
0.5028736407329838
100
AcDbArc
50
38.230657454001786
51
98.029167592597659
0
ARC
5
326
100
AcDbEntity
8
0
100
AcDbCircle
10
1.2159775583474117
20
0.84356013186058421
30
0
40
0.86440598019293102
100
AcDbArc
50
93.091476190028075
51
135.44702777820604
0
LINE
5
327
100
AcDbEntity
8
0
100
AcDbLine
10
1.608247338942622
20
1.4729270974775526
30
0
11
1.634620162003332
21
1.5199568201246663
31
0
0
LINE
5
328
100
AcDbEntity
8
0
100
AcDbLine
10
0.6000000191485787
20
1.4500000462757319
30
0
11
0.56999999311143956
21
1.3899999832015806
31
0
0
LINE
5
329
100
AcDbEntity
8
0
100
AcDbLine
10
0.62999999238632787
20
1.3599999835641363
30
0
11
0.62999999238632787
21
1.3790883300927492
31
0
0
LINE
5
330
100
AcDbEntity
8
0
100
AcDbLine
10
0.56999999311143956
20
1.3899999832015806
30
0
11
0.62999999238632787
21
1.3790883300927492
31
0
0
LINE
5
331
100
AcDbEntity
8
0
100
AcDbLine
10
0.21656355151244325
20
1.4740698692444931
30
0
11
0.26746828894880326
21
1.4740698692444931
31
0
0
ARC
5
332
100
AcDbEntity
8
0
100
AcDbCircle
10
0.079877486267011452
20
1.9995265789678602
30
0
40
0.31731623194107428
100
AcDbArc
50
175.53339847019998
51
227.31738329301518
0
ARC
5
333
100
AcDbEntity
8
0
100
AcDbCircle
10
-0.4500000143614229
20
4.7275847349428517
30
0
40
2.9780044528724794
100
AcDbArc
50
269.03797199599171
51
276.06715211456236
0
ARC
5
334
100
AcDbEntity
8
0
100
AcDbCircle
10
-0.39677601318965527
20
1.8947541485540202
30
0
40
0.17778903819387024
100
AcDbArc
50
151.17214436987129
51
234.507369298909
0
ARC
5
335
100
AcDbEntity
8
0
100
AcDbCircle
10
0.99352298893714497
20
4.6306392557667477
30
0
40
3.2447947802973847
100
AcDbArc
50
242.59464684149728
51
256.60848258635986
0
ARC
5
336
100
AcDbEntity
8
0
100
AcDbCircle
10
-0.16247783891620743
20
2.0368912584735219
30
0
40
0.41962346606906059
100
AcDbArc
50
262.1637696539031
51
292.78033266167273
0
ARC
5
337
100
AcDbEntity
8
0
100
AcDbCircle
10
-0.037674591560412168
20
1.8158816296329878
30
0
40
0.26037202361156053
100
AcDbArc
50
269.02756506190156
51
299.52470553708986
0
ARC
5
338
100
AcDbEntity
8
0
100
AcDbCircle
10
0.081437469251139469
20
1.6712739161616774
30
0
40
0.15217123762788662
100
AcDbArc
50
266.53427798854545
51
300.66501458298251
0
ARC
5
339
100
AcDbEntity
8
0
100
AcDbCircle
10
1.7432114847090345
20
3.9316194578063732
30
0
40
2.8665951859433458
100
AcDbArc
50
229.05827374775203
51
239.01544621055459
0
LINE
5
340
100
AcDbEntity
8
0
100
AcDbLine
10
0.15904750722609121
20
1.5403817178963519
30
0
11
0.16075126967574604
21
1.5413919314168703
31
0
0
LINE
5
341
100
AcDbEntity
8
0
100
AcDbLine
10
0
20
1.6500000526585916
30
0
11
0.0050409747966723498
21
1.652117047510592
31
0
0
LWPOLYLINE
5
342
100
AcDbEntity
8
0
100
AcDbPolyline
90
2
70
1
43
0.0
10
0.26222241694643211
20
1.5408410210729799
42
-0.48593131674071816
10
0.18810549387726275
20
1.627086167917104
42
-0.39682295985839822
0
LWPOLYLINE
5
343
100
AcDbEntity
8
0
100
AcDbPolyline
90
2
70
1
43
0.0
10
0.7500000239357234
20
1.4500000462757319
42
-0.4161648565757069
10
0.64897799732555161
20
1.4141684616456724
42
-0.44109466030861377
0
LINE
5
344
100
AcDbEntity
8
0
100
AcDbLine
10
2.3372707041463734
20
0.21405230416812807
30
0
11
2.4999999697870154
21
0.19999999758296125
31
0
0
LINE
5
345
100
AcDbEntity
8
0
100
AcDbLine
10
2.4305814575385898
20
0.21405230416812807
30
0
11
2.4364749502457066
21
0.20548563071052964
31
0
0
LINE
5
346
100
AcDbEntity
8
0
100
AcDbLine
10
2.4999999697870154
20
0.19999999758296125
30
0
11
2.5099999696661635
21
0.21999999734125736
31
0
0
LINE
5
347
100
AcDbEntity
8
0
100
AcDbLine
10
2.5099999696661635
20
0.21999999734125736
30
0
11
2.5711354549561527
21
0.2147207098133149
31
0
0
LINE
5
348
100
AcDbEntity
8
0
100
AcDbLine
10
1.5599999811470977
20
0.81999999009014113
30
0
11
1.475582978970668
21
0.81999999009014113
31
0
0
LWPOLYLINE
5
349
100
AcDbEntity
8
0
100
AcDbPolyline
90
4
70
1
43
0.0
10
0.81886958239793495
20
-0.022546845664106828
42
-0.9331811228974578
10
0.77999999057354874
20
-5.4636959873285258e-18
42
-0.13670560134326537
10
0.7999999903318451
20
0.049999999395740104
42
-0.6294582249449292
10
0.82999998996928936
20
0.039999999516592236
42
-0.16626377137540402
0
LWPOLYLINE
5
350
100
AcDbEntity
8
0
100
AcDbPolyline
90
4
70
1
43
0.0
10
0.98540649070699149
20
-0.070733320397994626
42
-0.52085392028342903
10
0.95000003031858304
20
-0.10000000319142979
42
-0.28811508837861111
10
0.93999998863991785
20
-0.089999998912332596
42
-0.42388928796017783
10
0.97532509374611354
20
-0.021812623013053801
42
-0.1956094848256186
0
ARC
5
351
100
AcDbEntity
8
0
100
AcDbCircle
10
2.3420463783717711
20
0.42270190822160836
30
0
40
0.1192548007719513
100
AcDbArc
50
108.59848215947956
51
130.34155216860592
0
LINE
5
352
100
AcDbEntity
8
0
100
AcDbLine
10
2.3040119437059641
20
0.53572884875708626
30
0
11
2.3765594424167804
21
0.53572884875708626
31
0
0
LINE
5
353
100
AcDbEntity
8
0
100
AcDbLine
10
2.4968812033699024
20
0.53572884875708626
30
0
11
2.3765594424167804
21
0.53572884875708626
31
0
0
ARC
5
354
100
AcDbEntity
8
0
100
AcDbCircle
10
2.4968812033699019
20
0.48131699347015455
30
0
40
0.054411855286931966
100
AcDbArc
50
29.879260474100153
51
89.999999999999545
0
LINE
5
355
100
AcDbEntity
8
0
100
AcDbLine
10
2.544060478757979
20
0.50842356037970604
30
0
11
2.6000000829771746
21
0.50000001595714894
31
0
0
ENDSEC
0
SECTION
2
OBJECTS
0
DICTIONARY
5
C
100
AcDbDictionary
3
ACAD_GROUP
350
D
3
ACAD_MLINESTYLE
350
17
0
DICTIONARY
5
D
100
AcDbDictionary
0
DICTIONARY
5
1A
330
C
100
AcDbDictionary
0
DICTIONARY
5
17
100
AcDbDictionary
0
ENDSEC
0
EOF
