0
SECTION
2
HEADER
9
$INSUNITS
70
1
9
$ACADVER
1
AC1014
9
$HANDSEED
5
FFFF
0
ENDSEC
0
SECTION
2
TABLES
0
TABLE
2
VPORT
5
8
100
AcDbSymbolTable
0
ENDTAB
0
TABLE
2
LTYPE
5
5
100
AcDbSymbolTable
0
LTYPE
5
14
100
AcDbSymbolTableRecord
100
AcDbLinetypeTableRecord
2
BYBLOCK
70
0
0
LTYPE
5
15
100
AcDbSymbolTableRecord
100
AcDbLinetypeTableRecord
2
BYLAYER
70
0
0
ENDTAB
0
TABLE
2
LAYER
5
2
100
AcDbSymbolTable
70
2
0
LAYER
5
50
100
AcDbSymbolTableRecord
100
AcDbLayerTableRecord
2
0
70
0
6
CONTINUOUS
0
ENDTAB
0
TABLE
2
STYLE
5
3
100
AcDbSymbolTable
70
1
0
STYLE
5
11
100
AcDbSymbolTableRecord
100
AcDbTextStyleTableRecord
2
STANDARD
70
0
0
ENDTAB
0
TABLE
2
VIEW
5
6
100
AcDbSymbolTable
70
0
0
ENDTAB
0
TABLE
2
UCS
5
7
100
AcDbSymbolTable
70
0
0
ENDTAB
0
TABLE
2
APPID
5
9
100
AcDbSymbolTable
70
2
0
APPID
5
12
100
AcDbSymbolTableRecord
100
AcDbRegAppTableRecord
2
ACAD
70
0
0
ENDTAB
0
TABLE
2
DIMSTYLE
5
A
100
AcDbSymbolTable
70
1
0
ENDTAB
0
TABLE
2
BLOCK_RECORD
5
1
100
AcDbSymbolTable
70
1
0
BLOCK_RECORD
5
1F
100
AcDbSymbolTableRecord
100
AcDbBlockTableRecord
2
*MODEL_SPACE
0
BLOCK_RECORD
5
1B
100
AcDbSymbolTableRecord
100
AcDbBlockTableRecord
2
*PAPER_SPACE
0
ENDTAB
0
ENDSEC
0
SECTION
2
BLOCKS
0
BLOCK
5
20
100
AcDbEntity
100
AcDbBlockBegin
2
*MODEL_SPACE
0
ENDBLK
5
21
100
AcDbEntity
100
AcDbBlockEnd
0
BLOCK
5
1C
100
AcDbEntity
100
AcDbBlockBegin
2
*PAPER_SPACE
0
ENDBLK
5
1D
100
AcDbEntity
100
AcDbBlockEnd
0
ENDSEC
0
SECTION
2
ENTITIES
0
LINE
5
100
100
AcDbEntity
8
0
100
AcDbLine
10
-0.4577779999999993
20
0
30
0
11
-0.45777799999999913
21
0.24999999999999997
31
0
0
LINE
5
101
100
AcDbEntity
8
0
100
AcDbLine
10
-0.45777799999999913
20
0.24999999999999997
30
0
11
-1.9999999999999991
21
0.24999999999999997
31
0
0
LINE
5
102
100
AcDbEntity
8
0
100
AcDbLine
10
-1.9999999999999991
20
0.24999999999999997
30
0
11
-0.45777799999999913
21
0.24999999999999997
31
0
0
LINE
5
103
100
AcDbEntity
8
0
100
AcDbLine
10
-0.4577779999999993
20
0
30
0
11
0.45777800000000113
21
0
31
0
0
LINE
5
104
100
AcDbEntity
8
0
100
AcDbLine
10
0.45777800000000113
20
0
30
0
11
0.45777800000000102
21
0.24999999999999997
31
0
0
LINE
5
105
100
AcDbEntity
8
0
100
AcDbLine
10
0.45777800000000102
20
0.24999999999999997
30
0
11
1.9999999999999998
21
0.24999999999999997
31
0
0
LINE
5
106
100
AcDbEntity
8
0
100
AcDbLine
10
1.9999999999999998
20
2.125
30
0
11
-1.7500000580953434
21
2.1249999999999991
31
0
0
LINE
5
107
100
AcDbEntity
8
0
100
AcDbLine
10
-2.1759747809376559e-08
20
2.1249999999999996
30
0
11
-4.3519495618753117e-08
21
3.9999999999999991
31
0
0
LINE
5
108
100
AcDbEntity
8
0
100
AcDbLine
10
-2.0000000319142965
20
1.6249999941974003
30
0
11
-1.7500000580953428
21
1.6249999999999982
31
0
0
LINE
5
109
100
AcDbEntity
8
0
100
AcDbLine
10
-1.7500000551246946
20
2.6249999999999991
30
0
11
-2.0000000551246941
21
2.6249999941973994
31
0
0
LINE
5
110
100
AcDbEntity
8
0
100
AcDbLine
10
1.7500000000000002
20
2.6250000406181959
30
0
11
1.9999999999999998
21
2.6250000406181959
31
0
0
LINE
5
111
100
AcDbEntity
8
0
100
AcDbLine
10
1.9999999999999996
20
1.6250000406181961
30
0
11
1.7500000261810458
21
1.625000040618195
31
0
0
LINE
5
112
100
AcDbEntity
8
0
100
AcDbLine
10
1.9999999999999998
20
0.24999999999999997
30
0
11
1.9999999999999996
21
1.6250000406181961
31
0
0
LINE
5
113
100
AcDbEntity
8
0
100
AcDbLine
10
1.9999999999999998
20
2.6250000406181959
30
0
11
1.9999999999999998
21
3.8000001212743322
31
0
0
LINE
5
114
100
AcDbEntity
8
0
100
AcDbLine
10
-2.0000000823969142
20
3.8000000861294336
30
0
11
-2.0000000551246941
21
2.6249999941973994
31
0
0
LINE
5
115
100
AcDbEntity
8
0
100
AcDbLine
10
-2.0000000319142965
20
1.6249999941974003
30
0
11
-1.9999999999999991
21
0.24999999999999997
31
0
0
LINE
5
116
100
AcDbEntity
8
0
100
AcDbLine
10
-0.50000004351949545
20
3.8000001209450311
30
0
11
-2.0000000823969142
21
3.8000000861294336
31
0
0
LINE
5
117
100
AcDbEntity
8
0
100
AcDbLine
10
0.49999995648050433
20
3.8000001212743322
30
0
11
1.9999999999999998
21
3.8000001212743322
31
0
0
LINE
5
118
100
AcDbEntity
8
0
100
AcDbLine
10
-0.50000004351949545
20
3.8000001209450311
30
0
11
-0.50000004932209485
21
4.0500001209450307
31
0
0
LINE
5
119
100
AcDbEntity
8
0
100
AcDbLine
10
-0.50000004351949545
20
3.8000001209450311
30
0
11
-0.25000004351949545
21
3.8000001209450311
31
0
0
LINE
5
120
100
AcDbEntity
8
0
100
AcDbLine
10
-0.50000004932209485
20
4.0500001209450307
30
0
11
0.50563680624786655
21
4.0500001442862628
31
0
0
LINE
5
121
100
AcDbEntity
8
0
100
AcDbLine
10
0.49999995648050433
20
3.8000001212743322
30
0
11
0.49999995067790437
21
4.0500001441554287
31
0
0
LINE
5
122
100
AcDbEntity
8
0
100
AcDbLine
10
-0.50000004351949545
20
3.8000001209450311
30
0
11
-0.50000004351949545
21
3.9250001209450316
31
0
0
LINE
5
123
100
AcDbEntity
8
0
100
AcDbLine
10
-0.50000004351949545
20
3.9250001209450316
30
0
11
-4.2649107177245996e-08
21
3.9250001267476313
31
0
0
CIRCLE
5
124
100
AcDbEntity
8
0
100
AcDbCircle
10
-4.2649107177245996e-08
20
3.9250001267476313
30
0
40
0.049212598425196936
0
LINE
5
125
100
AcDbEntity
8
0
100
AcDbLine
10
0.45777800000000102
20
0.24999999999999997
30
0
11
0.45777800000000102
21
0.125
31
0
0
LINE
5
126
100
AcDbEntity
8
0
100
AcDbLine
10
0
20
0
30
0
11
0
21
0.125
31
0
0
CIRCLE
5
127
100
AcDbEntity
8
0
100
AcDbCircle
10
0
20
0.125
30
0
40
0.049212598425196839
0
LINE
5
128
100
AcDbEntity
8
0
100
AcDbLine
10
-0.45777799999999913
20
0.24999999999999997
30
0
11
-0.4577779999999993
21
0
31
0
0
LINE
5
129
100
AcDbEntity
8
0
100
AcDbLine
10
-1.7500000551246946
20
2.6249999999999991
30
0
11
-1.7500000446568049
21
2.173999999999999
31
0
0
LINE
5
130
100
AcDbEntity
8
0
100
AcDbLine
10
-1.7500000580953428
20
1.6249999999999982
30
0
11
-1.7500000446568045
21
2.0759999999999992
31
0
0
LINE
5
131
100
AcDbEntity
8
0
100
AcDbLine
10
-1.7500000446568049
20
2.173999999999999
30
0
11
-1.7500000551246946
21
2.6249999999999991
31
0
0
LINE
5
132
100
AcDbEntity
8
0
100
AcDbLine
10
1.7500000261810458
20
1.625000040618195
30
0
11
1.7500000022746185
21
2.0760000406181955
31
0
0
LINE
5
133
100
AcDbEntity
8
0
100
AcDbLine
10
1.7499999999999996
20
2.1740000406181954
30
0
11
1.7500000000000002
21
2.6250000406181959
31
0
0
LINE
5
134
100
AcDbEntity
8
0
100
AcDbLine
10
-1.7500000446568045
20
2.0759999999999992
30
0
11
-1.7500000446568045
21
2.0784999999999991
31
0
0
LINE
5
135
100
AcDbEntity
8
0
100
AcDbLine
10
-1.7500000446568049
20
2.173999999999999
30
0
11
-1.7500000445987789
21
2.1715000000000875
31
0
0
LINE
5
136
100
AcDbEntity
8
0
100
AcDbLine
10
1.7500000022746185
20
2.0760000406181955
30
0
11
1.7500000022746185
21
2.0785000406181955
31
0
0
LINE
5
137
100
AcDbEntity
8
0
100
AcDbLine
10
1.7499999999999996
20
2.1740000406181954
30
0
11
1.7499999999999996
21
2.1715000406181955
31
0
0
LINE
5
138
100
AcDbEntity
8
0
100
AcDbLine
10
-1.7500000445987789
20
2.1715000000000875
30
0
11
-1.199000044598779
21
2.1715000127890236
31
0
0
LINE
5
139
100
AcDbEntity
8
0
100
AcDbLine
10
-1.199000044598779
20
2.1715000127890236
30
0
11
-1.1990000458985619
21
2.2275000127890237
31
0
0
LINE
5
140
100
AcDbEntity
8
0
100
AcDbLine
10
-1.1990000458985619
20
2.2275000127890237
30
0
11
-1.142000045898562
21
2.2275000141120169
31
0
0
LINE
5
141
100
AcDbEntity
8
0
100
AcDbLine
10
-1.142000045898562
20
2.2275000141120169
30
0
11
-1.142000044598779
21
2.1715000141120169
31
0
0
LINE
5
142
100
AcDbEntity
8
0
100
AcDbLine
10
-1.1990000458985619
20
2.022499987210975
30
0
11
-1.142000045898562
21
2.0224999858879817
31
0
0
LINE
5
143
100
AcDbEntity
8
0
100
AcDbLine
10
-1.142000045898562
20
2.0224999858879817
30
0
11
-1.142000044598779
21
2.0784999858879818
31
0
0
LINE
5
144
100
AcDbEntity
8
0
100
AcDbLine
10
-1.1990000445987785
20
2.0784999872109751
30
0
11
-1.1990000458985619
21
2.022499987210975
31
0
0
LINE
5
145
100
AcDbEntity
8
0
100
AcDbLine
10
-1.7500000445987793
20
2.0784999999999108
30
0
11
-1.1990000445987785
21
2.0784999872109751
31
0
0
LINE
5
146
100
AcDbEntity
8
0
100
AcDbLine
10
1.7499999999999996
20
2.1715000406182838
30
0
11
1.1989999999999996
21
2.1715000406182905
31
0
0
LINE
5
147
100
AcDbEntity
8
0
100
AcDbLine
10
1.1990000047581324
20
2.0225000150402428
30
0
11
1.1420000047581322
21
2.0225000123942563
31
0
0
LINE
5
148
100
AcDbEntity
8
0
100
AcDbLine
10
1.1420000000000003
20
2.2275000406182919
30
0
11
1.1419999999999997
21
2.1715000406182918
31
0
0
LINE
5
149
100
AcDbEntity
8
0
100
AcDbLine
10
1.1990000021585665
20
2.0785000150402428
30
0
11
1.1990000047581324
21
2.0225000150402428
31
0
0
LINE
5
150
100
AcDbEntity
8
0
100
AcDbLine
10
1.7500000021585673
20
2.0785000406181071
30
0
11
1.1990000021585665
21
2.0785000150402428
31
0
0
LINE
5
151
100
AcDbEntity
8
0
100
AcDbLine
10
1.1420000047581322
20
2.0225000123942563
30
0
11
1.142000002158567
21
2.0785000123942563
31
0
0
LINE
5
152
100
AcDbEntity
8
0
100
AcDbLine
10
1.1990000000000003
20
2.2275000406182905
30
0
11
1.1420000000000003
21
2.2275000406182919
31
0
0
LINE
5
153
100
AcDbEntity
8
0
100
AcDbLine
10
1.1989999999999996
20
2.1715000406182905
30
0
11
1.1990000000000003
21
2.2275000406182905
31
0
0
LWPOLYLINE
5
154
100
AcDbEntity
8
0
100
AcDbPolyline
90
4
70
1
43
0.0
10
0
20
2.0000000638285957
10
-0.30000000957428935
20
2.0000000638285957
10
-0.30000000957428935
20
1.7000000542543063
10
0
20
1.7000000542543063
0
LINE
5
155
100
AcDbEntity
8
0
100
AcDbLine
10
-1.142000044598779
20
2.1715000141120169
30
0
11
-0.83300004459877908
21
2.1715000212840341
31
0
0
LINE
5
156
100
AcDbEntity
8
0
100
AcDbLine
10
-1.142000044598779
20
2.0784999858879818
30
0
11
-0.83300004459877908
21
2.0784999787159646
31
0
0
LINE
5
157
100
AcDbEntity
8
0
100
AcDbLine
10
-0.83300004459877908
20
2.1715000212840341
30
0
11
-0.83300004459877908
21
2.0784999787159646
31
0
0
LINE
5
158
100
AcDbEntity
8
0
100
AcDbLine
10
1.1419999999999997
20
2.1715000406182918
30
0
11
0.83299999999999963
21
2.1715000406182954
31
0
0
LINE
5
159
100
AcDbEntity
8
0
100
AcDbLine
10
1.142000002158567
20
2.0785000123942563
30
0
11
0.83300000215856729
21
2.0784999980502259
31
0
0
LINE
5
160
100
AcDbEntity
8
0
100
AcDbLine
10
0.83299999999999963
20
2.1715000406182954
30
0
11
0.83300000215856729
21
2.0784999980502259
31
0
0
ENDSEC
0
SECTION
2
OBJECTS
0
DICTIONARY
5
C
100
AcDbDictionary
3
ACAD_GROUP
350
D
3
ACAD_MLINESTYLE
350
17
0
DICTIONARY
5
D
100
AcDbDictionary
0
DICTIONARY
5
1A
330
C
100
AcDbDictionary
0
DICTIONARY
5
17
100
AcDbDictionary
0
ENDSEC
0
EOF
