0
SECTION
2
HEADER
9
$INSUNITS
70
1
9
$ACADVER
1
AC1014
9
$HANDSEED
5
FFFF
0
ENDSEC
0
SECTION
2
TABLES
0
TABLE
2
VPORT
5
8
100
AcDbSymbolTable
0
ENDTAB
0
TABLE
2
LTYPE
5
5
100
AcDbSymbolTable
0
LTYPE
5
14
100
AcDbSymbolTableRecord
100
AcDbLinetypeTableRecord
2
BYBLOCK
70
0
0
LTYPE
5
15
100
AcDbSymbolTableRecord
100
AcDbLinetypeTableRecord
2
BYLAYER
70
0
0
ENDTAB
0
TABLE
2
LAYER
5
2
100
AcDbSymbolTable
70
2
0
LAYER
5
50
100
AcDbSymbolTableRecord
100
AcDbLayerTableRecord
2
0
70
0
6
CONTINUOUS
0
ENDTAB
0
TABLE
2
STYLE
5
3
100
AcDbSymbolTable
70
1
0
STYLE
5
11
100
AcDbSymbolTableRecord
100
AcDbTextStyleTableRecord
2
STANDARD
70
0
0
ENDTAB
0
TABLE
2
VIEW
5
6
100
AcDbSymbolTable
70
0
0
ENDTAB
0
TABLE
2
UCS
5
7
100
AcDbSymbolTable
70
0
0
ENDTAB
0
TABLE
2
APPID
5
9
100
AcDbSymbolTable
70
2
0
APPID
5
12
100
AcDbSymbolTableRecord
100
AcDbRegAppTableRecord
2
ACAD
70
0
0
ENDTAB
0
TABLE
2
DIMSTYLE
5
A
100
AcDbSymbolTable
70
1
0
ENDTAB
0
TABLE
2
BLOCK_RECORD
5
1
100
AcDbSymbolTable
70
1
0
BLOCK_RECORD
5
1F
100
AcDbSymbolTableRecord
100
AcDbBlockTableRecord
2
*MODEL_SPACE
0
BLOCK_RECORD
5
1B
100
AcDbSymbolTableRecord
100
AcDbBlockTableRecord
2
*PAPER_SPACE
0
ENDTAB
0
ENDSEC
0
SECTION
2
BLOCKS
0
BLOCK
5
20
100
AcDbEntity
100
AcDbBlockBegin
2
*MODEL_SPACE
0
ENDBLK
5
21
100
AcDbEntity
100
AcDbBlockEnd
0
BLOCK
5
1C
100
AcDbEntity
100
AcDbBlockBegin
2
*PAPER_SPACE
0
ENDBLK
5
1D
100
AcDbEntity
100
AcDbBlockEnd
0
ENDSEC
0
SECTION
2
ENTITIES
0
LINE
5
100
100
AcDbEntity
8
0
100
AcDbLine
10
-0.125
20
0.2499999999999995
30
0
11
0.12499999999999997
21
0.2500000000000005
31
-3.0422625177930704e-33
0
LINE
5
101
100
AcDbEntity
8
0
100
AcDbLine
10
0.12499999999998584
20
3.8000000000000003
30
0
11
-0.12500000000001413
21
3.7999999999999985
31
-2.9408979536535639e-33
0
LINE
5
102
100
AcDbEntity
8
0
100
AcDbLine
10
-0.049212725009154523
20
3.8000000421557552
30
0
11
-0.12500000000001413
21
3.7999999999999985
31
-2.9408979536535639e-33
0
LINE
5
103
100
AcDbEntity
8
0
100
AcDbLine
10
-0.125
20
0.2499999999999995
30
0
11
-0.047640789889253625
21
0.24999999999999997
31
-1.5211312588965352e-33
0
LINE
5
104
100
AcDbEntity
8
0
100
AcDbLine
10
0.047640789889253583
20
0.25000000000000039
30
-1.5211312588965352e-33
11
0.12499999999999997
21
0.2500000000000005
31
-3.0422625177930704e-33
0
LINE
5
105
100
AcDbEntity
8
0
100
AcDbLine
10
0.04921272500912624
20
3.8000000421557565
30
0
11
0.12499999999998584
21
3.8000000000000003
31
0
0
LINE
5
106
100
AcDbEntity
8
0
100
AcDbLine
10
-0.125
20
0.2499999999999995
30
0
11
-0.15000000478714468
21
0.24999999999999925
31
7.6760651513616626e-34
0
LINE
5
107
100
AcDbEntity
8
0
100
AcDbLine
10
-0.15000000478714468
20
0.24999999999999925
30
7.6760651513616626e-34
11
-0.15000000478716644
21
3.7499999999999991
31
7.6760651513616626e-34
0
LINE
5
108
100
AcDbEntity
8
0
100
AcDbLine
10
0.12499999999999997
20
0.2500000000000005
30
-3.0422625177930704e-33
11
0.15000000478714468
21
0.25000000000000056
31
-3.5158658316225004e-33
0
LINE
5
109
100
AcDbEntity
8
0
100
AcDbLine
10
0.15000000478714468
20
0.25000000000000056
30
-3.5158658316225004e-33
11
0.15000000478713857
21
3.75
31
-3.5158658316225004e-33
0
LINE
5
110
100
AcDbEntity
8
0
100
AcDbLine
10
0.15000000478713857
20
3.75
30
-3.5158658316225004e-33
11
0.15000000478713832
21
3.7999999540762635
31
-3.5158658316225004e-33
0
LINE
5
111
100
AcDbEntity
8
0
100
AcDbLine
10
0.12499999999998584
20
3.8000000000000003
30
0
11
0.15000000478713832
21
3.7999999540762635
31
-3.5158658316225004e-33
0
LINE
5
112
100
AcDbEntity
8
0
100
AcDbLine
10
-0.15000000478716644
20
3.7499999999999991
30
7.6760651513616626e-34
11
-0.15000003259912958
21
3.8000001204727152
31
7.6760651513616626e-34
0
LINE
5
113
100
AcDbEntity
8
0
100
AcDbLine
10
-0.12500000000001413
20
3.7999999999999985
30
-2.9408979536535639e-33
11
-0.15000003259912958
21
3.8000001204727152
31
7.6760651513616626e-34
0
LINE
5
114
100
AcDbEntity
8
0
100
AcDbLine
10
0.047640789889253583
20
0.25000000000000039
30
-1.5211312588965352e-33
11
0.046640789889253582
21
0.25000000000000033
31
-1.5897721094317038e-33
0
LINE
5
115
100
AcDbEntity
8
0
100
AcDbLine
10
-0.047640789889253625
20
0.24999999999999997
30
-1.5211312588965352e-33
11
-0.046640789889253624
21
0.24999999999999997
31
-1.4575959216963433e-33
0
LINE
5
116
100
AcDbEntity
8
0
100
AcDbLine
10
-0.049212725009154606
20
3.8000000421557556
30
8.7419135797256413e-17
11
-0.046712725009584115
21
3.8000000421557556
31
8.7419135797256413e-17
0
LINE
5
117
100
AcDbEntity
8
0
100
AcDbLine
10
0.04921272500912624
20
3.8000000421557565
30
0
11
0.046712725009536507
21
3.8000000421557565
31
-2.9408979531709442e-35
0
LINE
5
118
100
AcDbEntity
8
0
100
AcDbLine
10
-0.046712725009584115
20
3.8000000421557556
30
8.7419135797256413e-17
11
-0.046712725009584115
21
3.2490000421557559
31
8.7419135797256413e-17
0
LINE
5
119
100
AcDbEntity
8
0
100
AcDbLine
10
-0.046712725009584115
20
3.2490000421557559
30
8.7419135797256413e-17
11
-0.10271272500958412
21
3.2490000421557559
31
8.7419135797256413e-17
0
LINE
5
120
100
AcDbEntity
8
0
100
AcDbLine
10
-0.10271272500958412
20
3.2490000421557559
30
8.7419135797256413e-17
11
-0.10271272500958412
21
3.1920000421557555
31
8.7419135797256413e-17
0
LINE
5
121
100
AcDbEntity
8
0
100
AcDbLine
10
-0.10271272500958412
20
3.1920000421557555
30
8.7419135797256413e-17
11
-0.046712725009584115
21
3.1920000421557555
31
8.7419135797256413e-17
0
LINE
5
122
100
AcDbEntity
8
0
100
AcDbLine
10
0.046712725009536507
20
3.8000000421557565
30
-2.9408979531709442e-35
11
0.046712725009536507
21
3.2490000421557563
31
-2.9408979531709442e-35
0
LINE
5
123
100
AcDbEntity
8
0
100
AcDbLine
10
0.046712725009536507
20
3.2490000421557563
30
-2.9408979531709442e-35
11
0.10271272500953652
21
3.2490000421557563
31
-2.9408979531709442e-35
0
LINE
5
124
100
AcDbEntity
8
0
100
AcDbLine
10
0.10271272500953652
20
3.2490000421557563
30
-2.9408979531709442e-35
11
0.10271272500953652
21
3.1920000421557564
31
-2.9408979531709442e-35
0
LINE
5
125
100
AcDbEntity
8
0
100
AcDbLine
10
0.10271272500953652
20
3.1920000421557564
30
-2.9408979531709442e-35
11
0.046712725009536514
21
3.1920000421557564
31
-2.9408979531709442e-35
0
LINE
5
126
100
AcDbEntity
8
0
100
AcDbLine
10
-0.046640789889253624
20
0.24999999999999997
30
-1.4575959216963433e-33
11
-0.046640789889253624
21
0.80100000000000005
31
-1.4575959216963433e-33
0
LINE
5
127
100
AcDbEntity
8
0
100
AcDbLine
10
0.046640789889253582
20
0.25000000000000033
30
-1.5897721094317038e-33
11
0.046640789889229498
21
0.80100000000000038
31
-1.5897721094317038e-33
0
LINE
5
128
100
AcDbEntity
8
0
100
AcDbLine
10
-0.046640789889253624
20
0.80100000000000005
30
-1.4575959216963433e-33
11
-0.10264078988925361
21
0.80100000000000005
31
-1.4575959216963433e-33
0
LINE
5
129
100
AcDbEntity
8
0
100
AcDbLine
10
-0.10264078988925361
20
0.80100000000000005
30
-1.4575959216963433e-33
11
-0.10264078988925361
21
0.80540958902778925
31
-1.4575959216963433e-33
0
LINE
5
130
100
AcDbEntity
8
0
100
AcDbLine
10
-0.10264078988925361
20
0.80540958902778925
30
-1.4575959216963433e-33
11
-0.10264078988925361
21
0.86240958902778919
31
-1.4575959216963433e-33
0
LINE
5
131
100
AcDbEntity
8
0
100
AcDbLine
10
-0.10264078988925361
20
0.86240958902778919
30
-1.4575959216963433e-33
11
-0.046640789889253617
21
0.86240958902778919
31
-1.4575959216963433e-33
0
LINE
5
132
100
AcDbEntity
8
0
100
AcDbLine
10
0.046640789889229498
20
0.80100000000000038
30
-1.5897721094317038e-33
11
0.10264078988922949
21
0.80100000000000282
31
-1.5897721094317038e-33
0
LINE
5
133
100
AcDbEntity
8
0
100
AcDbLine
10
0.10264078988922949
20
0.80100000000000282
30
-1.5897721094317038e-33
11
0.1026407898892293
21
0.80535626101740421
31
-1.5897721094317038e-33
0
LINE
5
134
100
AcDbEntity
8
0
100
AcDbLine
10
0.1026407898892293
20
0.80535626101740421
30
-1.5897721094317038e-33
11
0.1026407898892268
21
0.86235626101740415
31
-1.5897721094317038e-33
0
LINE
5
135
100
AcDbEntity
8
0
100
AcDbLine
10
0.1026407898892268
20
0.86235626101740415
30
-1.5897721094317038e-33
11
0.046640789889226805
21
0.8623562610174017
31
-1.5897721094317038e-33
0
LINE
5
136
100
AcDbEntity
8
0
100
AcDbLine
10
-0.046712725009584115
20
3.1920000421557555
30
8.7419135797256413e-17
11
-0.046712725009584115
21
2.8830000421557553
31
8.7419135797256413e-17
0
LINE
5
137
100
AcDbEntity
8
0
100
AcDbLine
10
0.046712725009536514
20
3.1920000421557564
30
-2.9408979531709442e-35
11
0.046712725009536514
21
2.8830000421557562
31
-2.9408979531709442e-35
0
LINE
5
138
100
AcDbEntity
8
0
100
AcDbLine
10
0.046712725009536514
20
2.8830000421557562
30
-2.9408979531709442e-35
11
-0.046712725009584115
21
2.8830000421557553
31
8.7419135797256413e-17
0
LINE
5
139
100
AcDbEntity
8
0
100
AcDbLine
10
-0.046640789889253617
20
0.86240958902778919
30
-1.4575959216963433e-33
11
-0.046640789889253617
21
1.1714094334931835
31
-1.4575959216963433e-33
0
LINE
5
140
100
AcDbEntity
8
0
100
AcDbLine
10
0.046640789889226805
20
0.8623562610174017
30
-1.5897721094317038e-33
11
0.046640789889213295
21
1.1713562610174018
31
-1.5897721094317038e-33
0
LINE
5
141
100
AcDbEntity
8
0
100
AcDbLine
10
-0.046640789889253617
20
1.1714094334931835
30
-1.4575959216963433e-33
11
0.046640789889213295
21
1.1713562610174018
31
-1.5897721094317038e-33
0
ENDSEC
0
SECTION
2
OBJECTS
0
DICTIONARY
5
C
100
AcDbDictionary
3
ACAD_GROUP
350
D
3
ACAD_MLINESTYLE
350
17
0
DICTIONARY
5
D
100
AcDbDictionary
0
DICTIONARY
5
1A
330
C
100
AcDbDictionary
0
DICTIONARY
5
17
100
AcDbDictionary
0
ENDSEC
0
EOF
