0
SECTION
2
HEADER
9
$INSUNITS
70
1
9
$ACADVER
1
AC1014
9
$HANDSEED
5
FFFF
0
ENDSEC
0
SECTION
2
TABLES
0
TABLE
2
VPORT
5
8
100
AcDbSymbolTable
0
ENDTAB
0
TABLE
2
LTYPE
5
5
100
AcDbSymbolTable
0
LTYPE
5
14
100
AcDbSymbolTableRecord
100
AcDbLinetypeTableRecord
2
BYBLOCK
70
0
0
LTYPE
5
15
100
AcDbSymbolTableRecord
100
AcDbLinetypeTableRecord
2
BYLAYER
70
0
0
ENDTAB
0
TABLE
2
LAYER
5
2
100
AcDbSymbolTable
70
2
0
LAYER
5
50
100
AcDbSymbolTableRecord
100
AcDbLayerTableRecord
2
0
70
0
6
CONTINUOUS
0
ENDTAB
0
TABLE
2
STYLE
5
3
100
AcDbSymbolTable
70
1
0
STYLE
5
11
100
AcDbSymbolTableRecord
100
AcDbTextStyleTableRecord
2
STANDARD
70
0
0
ENDTAB
0
TABLE
2
VIEW
5
6
100
AcDbSymbolTable
70
0
0
ENDTAB
0
TABLE
2
UCS
5
7
100
AcDbSymbolTable
70
0
0
ENDTAB
0
TABLE
2
APPID
5
9
100
AcDbSymbolTable
70
2
0
APPID
5
12
100
AcDbSymbolTableRecord
100
AcDbRegAppTableRecord
2
ACAD
70
0
0
ENDTAB
0
TABLE
2
DIMSTYLE
5
A
100
AcDbSymbolTable
70
1
0
ENDTAB
0
TABLE
2
BLOCK_RECORD
5
1
100
AcDbSymbolTable
70
1
0
BLOCK_RECORD
5
1F
100
AcDbSymbolTableRecord
100
AcDbBlockTableRecord
2
*MODEL_SPACE
0
BLOCK_RECORD
5
1B
100
AcDbSymbolTableRecord
100
AcDbBlockTableRecord
2
*PAPER_SPACE
0
ENDTAB
0
ENDSEC
0
SECTION
2
BLOCKS
0
BLOCK
5
20
100
AcDbEntity
100
AcDbBlockBegin
2
*MODEL_SPACE
0
ENDBLK
5
21
100
AcDbEntity
100
AcDbBlockEnd
0
BLOCK
5
1C
100
AcDbEntity
100
AcDbBlockBegin
2
*PAPER_SPACE
0
ENDBLK
5
1D
100
AcDbEntity
100
AcDbBlockEnd
0
ENDSEC
0
SECTION
2
ENTITIES
0
LINE
5
100
100
AcDbEntity
8
0
100
AcDbLine
10
-1.9999999999999998
20
1.7500001263199925
30
-6.9935308637805131e-16
11
-1.9999999999999998
21
0.50000012301871677
31
-6.9935307595687827e-16
0
LINE
5
101
100
AcDbEntity
8
0
100
AcDbLine
10
-1.9999999999999998
20
0.50000012301871677
30
-6.9935307595687827e-16
11
-1.75
21
0.50000012301871666
31
-6.9935308637805131e-16
0
LINE
5
102
100
AcDbEntity
8
0
100
AcDbLine
10
-2.0000000823969142
20
2.0000001183327294
30
0
11
-0.5000000435194959
21
2.0000001183327307
31
0
0
LINE
5
103
100
AcDbEntity
8
0
100
AcDbLine
10
-0.5000000435194959
20
2.0000001183327307
30
0
11
-0.50000004351949578
21
1.7500001183327312
31
0
0
LINE
5
104
100
AcDbEntity
8
0
100
AcDbLine
10
0.49999995648050383
20
1.7500001240371141
30
0
11
0.49999995648050383
21
2.0000001240371135
31
0
0
LINE
5
105
100
AcDbEntity
8
0
100
AcDbLine
10
0.49999995648050383
20
2.0000001240371135
30
0
11
1.9999999999999996
21
2.0000001183327312
31
0
0
LINE
5
106
100
AcDbEntity
8
0
100
AcDbLine
10
1.9999999999999996
20
2.0000001183327312
30
0
11
1.9999999999999998
21
0.50000013014919975
31
0
0
LINE
5
107
100
AcDbEntity
8
0
100
AcDbLine
10
1.9999999999999998
20
-0.49999986985079964
30
0
11
1.9999999999999996
21
-1.9999998816672673
31
0
0
LINE
5
108
100
AcDbEntity
8
0
100
AcDbLine
10
1.9999999999999996
20
-1.9999998816672673
30
0
11
0.49999995648050383
21
-1.9999998759628841
31
0
0
LINE
5
109
100
AcDbEntity
8
0
100
AcDbLine
10
0.49999995648050383
20
-1.9999998759628841
30
0
11
0.49999995648050383
21
-1.7499998759628845
31
0
0
LINE
5
110
100
AcDbEntity
8
0
100
AcDbLine
10
-0.50000004351949578
20
-1.7499998816672673
30
0
11
-0.5000000435194959
21
-1.9999998759628841
31
0
0
LINE
5
111
100
AcDbEntity
8
0
100
AcDbLine
10
-0.5000000435194959
20
-1.9999998759628841
30
0
11
-2.0000000823969142
21
-1.9999998816672677
31
0
0
LINE
5
112
100
AcDbEntity
8
0
100
AcDbLine
10
-2.0000000823969142
20
-1.9999998816672677
30
0
11
-1.9999999999999998
21
-0.49999986985079964
31
0
0
LINE
5
113
100
AcDbEntity
8
0
100
AcDbLine
10
-1.9999999999999998
20
-0.49999986985079964
30
-6.9935308637805131e-16
11
-1.75
21
-0.49999986985079964
31
0
0
LINE
5
114
100
AcDbEntity
8
0
100
AcDbLine
10
-1.9999999999999998
20
0.50000012301871677
30
-6.9935307595687827e-16
11
-2.0000000823969142
21
2.0000001183327294
31
-6.9935308637805131e-16
0
LINE
5
115
100
AcDbEntity
8
0
100
AcDbLine
10
-2.0000000823969142
20
2.0000001183327294
30
0
11
-1.9999999999999998
21
0.50000012301871677
31
-6.9935307595687827e-16
0
LINE
5
116
100
AcDbEntity
8
0
100
AcDbLine
10
-1.75
20
0.50000012301871666
30
-6.9935308637805131e-16
11
-1.9999999999999998
21
0.50000012301871677
31
-6.9935307595687827e-16
0
LINE
5
117
100
AcDbEntity
8
0
100
AcDbLine
10
1.9999999999999998
20
0.50000013014919975
30
0
11
1.75
21
0.50000013014919975
31
0
0
LINE
5
118
100
AcDbEntity
8
0
100
AcDbLine
10
1.9999999999999998
20
-0.49999986985079964
30
0
11
1.75
21
-0.49999987698128262
31
0
0
LINE
5
119
100
AcDbEntity
8
0
100
AcDbLine
10
-1.7500000000000002
20
0.049212725009155307
30
-3.4967654318902565e-16
11
-1.75
21
0.50000012301871666
31
-6.9935308637805131e-16
0
LINE
5
120
100
AcDbEntity
8
0
100
AcDbLine
10
-1.7500000000000002
20
-0.049212471841238406
30
-3.4967654318902565e-16
11
-1.75
21
-0.49999986985079964
31
0
0
LINE
5
121
100
AcDbEntity
8
0
100
AcDbLine
10
0.049212725009155134
20
1.7500000000000002
30
-3.4967654318902565e-16
11
0.49999995648050383
21
1.7500001240371141
31
0
0
LINE
5
122
100
AcDbEntity
8
0
100
AcDbLine
10
1.7500000000000007
20
0.04921247184123919
30
-3.4967654318902565e-16
11
1.75
21
0.50000013014919975
31
0
0
LINE
5
123
100
AcDbEntity
8
0
100
AcDbLine
10
1.7500000000000007
20
-0.04921272500915453
30
-3.4967654318902565e-16
11
1.75
21
-0.49999987698128262
31
0
0
LINE
5
124
100
AcDbEntity
8
0
100
AcDbLine
10
-0.049212725009154912
20
-1.7500000000000002
30
-3.4967654318902565e-16
11
-0.50000004351949578
21
-1.7499998816672677
31
-6.9935308637805131e-16
0
LINE
5
125
100
AcDbEntity
8
0
100
AcDbLine
10
0.049212471841238795
20
-1.7500000000000002
30
-3.4967654318902565e-16
11
0.49999995648050383
21
-1.7499998759628845
31
0
0
LINE
5
126
100
AcDbEntity
8
0
100
AcDbLine
10
-0.049212471841238579
20
1.7500000000000002
30
-3.4967654318902565e-16
11
-0.50000004351949578
21
1.7500001183327312
31
-1.3987061727561026e-15
0
CIRCLE
5
127
100
AcDbEntity
8
0
100
AcDbCircle
10
0
20
0
30
0
40
0.049000017079870381
0
LINE
5
128
100
AcDbEntity
8
0
100
AcDbLine
10
0
20
0
30
0
11
0
21
-1.7500000558500213
31
0
0
LINE
5
129
100
AcDbEntity
8
0
100
AcDbLine
10
-0.049212725009154926
20
-1.7500000000000007
30
-3.4967654318902565e-16
11
-0.04671272500915493
21
-1.7500000000000007
31
-3.4967654318902565e-16
0
LINE
5
130
100
AcDbEntity
8
0
100
AcDbLine
10
0.049212471841238795
20
-1.7500000000000002
30
-3.4967654318902565e-16
11
0.046712471841238799
21
-1.7500000000000002
31
-3.4967654318902565e-16
0
LINE
5
131
100
AcDbEntity
8
0
100
AcDbLine
10
0.046712471841238799
20
-1.7500000000000002
30
-3.4967654318902565e-16
11
0.046712471841238799
21
-1.1990000000000003
31
-3.4967654318902565e-16
0
LINE
5
132
100
AcDbEntity
8
0
100
AcDbLine
10
0.046712471841238799
20
-1.1990000000000003
30
-3.4967654318902565e-16
11
0.10271247184123879
21
-1.1990000000000003
31
-3.4967654318902565e-16
0
LINE
5
133
100
AcDbEntity
8
0
100
AcDbLine
10
0.10271247184123879
20
-1.1990000000000003
30
-3.4967654318902565e-16
11
0.10271247184123879
21
-1.1420000000000003
31
-3.4967654318902565e-16
0
LINE
5
134
100
AcDbEntity
8
0
100
AcDbLine
10
0.10271247184123879
20
-1.1420000000000003
30
-3.4967654318902565e-16
11
0.046712471841238792
21
-1.1420000000000003
31
-3.4967654318902565e-16
0
LINE
5
135
100
AcDbEntity
8
0
100
AcDbLine
10
-0.10271247184123879
20
-1.1990000000000003
30
-3.4967654318902565e-16
11
-0.10271247184123879
21
-1.1420000000000003
31
-3.4967654318902565e-16
0
LINE
5
136
100
AcDbEntity
8
0
100
AcDbLine
10
-0.10271247184123879
20
-1.1420000000000003
30
-3.4967654318902565e-16
11
-0.046712471841238792
21
-1.1420000000000003
31
-3.4967654318902565e-16
0
LINE
5
137
100
AcDbEntity
8
0
100
AcDbLine
10
-0.046712471841238799
20
-1.1990000000000003
30
-3.4967654318902565e-16
11
-0.10271247184123879
21
-1.1990000000000003
31
-3.4967654318902565e-16
0
LINE
5
138
100
AcDbEntity
8
0
100
AcDbLine
10
-0.046712471841238799
20
-1.7500000000000002
30
-3.4967654318902565e-16
11
-0.046712471841238799
21
-1.1990000000000003
31
-3.4967654318902565e-16
0
LINE
5
139
100
AcDbEntity
8
0
100
AcDbLine
10
1.1420000000000006
20
-0.10271247184123855
30
-3.4967654318902565e-16
11
1.1420000000000006
21
-0.04671247184123855
31
-3.4967654318902565e-16
0
LINE
5
140
100
AcDbEntity
8
0
100
AcDbLine
10
1.1990000000000007
20
-0.046712471841238543
30
-3.4967654318902565e-16
11
1.1990000000000007
21
-0.10271247184123855
31
-3.4967654318902565e-16
0
LINE
5
141
100
AcDbEntity
8
0
100
AcDbLine
10
1.1420000000000006
20
0.10271247184123908
30
-3.4967654318902565e-16
11
1.1420000000000006
21
0.046712471841239056
31
-3.4967654318902565e-16
0
LINE
5
142
100
AcDbEntity
8
0
100
AcDbLine
10
1.1421551704723001
20
-0.049212615505066136
30
0
11
1.1400000000000217
21
-0.049212564882718232
31
-3.4967654318902565e-16
0
LINE
5
143
100
AcDbEntity
8
0
100
AcDbLine
10
1.1990000000000007
20
0.10271247184123908
30
-3.4967654318902565e-16
11
1.1420000000000006
21
0.10271247184123908
31
-3.4967654318902565e-16
0
LINE
5
144
100
AcDbEntity
8
0
100
AcDbLine
10
1.1990000000000007
20
0.046712471841239077
30
-3.4967654318902565e-16
11
1.1990000000000007
21
0.10271247184123908
31
-3.4967654318902565e-16
0
LINE
5
145
100
AcDbEntity
8
0
100
AcDbLine
10
1.1990000000000007
20
-0.10271247184123855
30
-3.4967654318902565e-16
11
1.1420000000000006
21
-0.10271247184123855
31
-3.4967654318902565e-16
0
LINE
5
146
100
AcDbEntity
8
0
100
AcDbLine
10
1.1421551704723001
20
0.049212615505066636
30
0
11
1.1400000000000217
21
0.049212564882718732
31
-3.4967654318902565e-16
0
LINE
5
147
100
AcDbEntity
8
0
100
AcDbLine
10
1.7500000000000007
20
-0.046712471841238418
30
-3.4967654318902565e-16
11
1.1990000000000007
21
-0.046712471841238543
31
-3.4967654318902565e-16
0
LINE
5
148
100
AcDbEntity
8
0
100
AcDbLine
10
1.7500000000000007
20
0.046712471841239195
30
-3.4967654318902565e-16
11
1.1990000000000007
21
0.046712471841239077
31
-3.4967654318902565e-16
0
LINE
5
149
100
AcDbEntity
8
0
100
AcDbLine
10
0.10271247184123893
20
1.1420000000000003
30
-3.4967654318902565e-16
11
0.046712471841238931
21
1.1420000000000003
31
-3.4967654318902565e-16
0
LINE
5
150
100
AcDbEntity
8
0
100
AcDbLine
10
0.046712471841238945
20
1.1990000000000003
30
-3.4967654318902565e-16
11
0.10271247184123894
21
1.1990000000000003
31
-3.4967654318902565e-16
0
LINE
5
151
100
AcDbEntity
8
0
100
AcDbLine
10
-0.10271247184123866
20
1.1420000000000003
30
-3.4967654318902565e-16
11
-0.046712471841238647
21
1.1420000000000003
31
-3.4967654318902565e-16
0
LINE
5
152
100
AcDbEntity
8
0
100
AcDbLine
10
0.049212615505066518
20
1.1421551704722999
30
0
11
0.049212564882718614
21
1.1400000000000214
31
-3.4967654318902565e-16
0
LINE
5
153
100
AcDbEntity
8
0
100
AcDbLine
10
-0.10271247184123863
20
1.1990000000000003
30
-3.4967654318902565e-16
11
-0.10271247184123866
21
1.1420000000000003
31
-3.4967654318902565e-16
0
LINE
5
154
100
AcDbEntity
8
0
100
AcDbLine
10
-0.046712471841238647
20
1.1990000000000003
30
-3.4967654318902565e-16
11
-0.10271247184123863
21
1.1990000000000003
31
-3.4967654318902565e-16
0
LINE
5
155
100
AcDbEntity
8
0
100
AcDbLine
10
0.10271247184123894
20
1.1990000000000003
30
-3.4967654318902565e-16
11
0.10271247184123893
21
1.1420000000000003
31
-3.4967654318902565e-16
0
LINE
5
156
100
AcDbEntity
8
0
100
AcDbLine
10
-0.049212615505066233
20
1.1421551704722999
30
0
11
-0.049212564882718329
21
1.1400000000000214
31
-3.4967654318902565e-16
0
LINE
5
157
100
AcDbEntity
8
0
100
AcDbLine
10
0.046712471841239007
20
1.7500000000000002
30
-3.4967654318902565e-16
11
0.046712471841238945
21
1.1990000000000003
31
-3.4967654318902565e-16
0
LINE
5
158
100
AcDbEntity
8
0
100
AcDbLine
10
-0.046712471841238584
20
1.7500000000000002
30
-3.4967654318902565e-16
11
-0.046712471841238647
21
1.1990000000000003
31
-3.4967654318902565e-16
0
LINE
5
159
100
AcDbEntity
8
0
100
AcDbLine
10
-1.1420000000000003
20
0.10271247184123905
30
-3.4967654318902565e-16
11
-1.1420000000000003
21
0.046712471841239042
31
-3.4967654318902565e-16
0
LINE
5
160
100
AcDbEntity
8
0
100
AcDbLine
10
-1.1990000000000003
20
0.046712471841239063
30
-3.4967654318902565e-16
11
-1.1990000000000003
21
0.10271247184123905
31
-3.4967654318902565e-16
0
LINE
5
161
100
AcDbEntity
8
0
100
AcDbLine
10
-1.1420000000000003
20
-0.10271247184123852
30
-3.4967654318902565e-16
11
-1.1420000000000003
21
-0.046712471841238543
31
-3.4967654318902565e-16
0
LINE
5
162
100
AcDbEntity
8
0
100
AcDbLine
10
-1.1990000000000003
20
-0.10271247184123852
30
-3.4967654318902565e-16
11
-1.1420000000000003
21
-0.10271247184123852
31
-3.4967654318902565e-16
0
LINE
5
163
100
AcDbEntity
8
0
100
AcDbLine
10
-1.1990000000000003
20
-0.046712471841238529
30
-3.4967654318902565e-16
11
-1.1990000000000003
21
-0.10271247184123852
31
-3.4967654318902565e-16
0
LINE
5
164
100
AcDbEntity
8
0
100
AcDbLine
10
-1.1990000000000003
20
0.10271247184123905
30
-3.4967654318902565e-16
11
-1.1420000000000003
21
0.10271247184123905
31
-3.4967654318902565e-16
0
LINE
5
165
100
AcDbEntity
8
0
100
AcDbLine
10
-1.7500000000000002
20
0.046712471841239188
30
-3.4967654318902565e-16
11
-1.1990000000000003
21
0.046712471841239063
31
-3.4967654318902565e-16
0
LINE
5
166
100
AcDbEntity
8
0
100
AcDbLine
10
-1.7500000000000002
20
-0.046712471841238411
30
-3.4967654318902565e-16
11
-1.1990000000000003
21
-0.046712471841238529
31
-3.4967654318902565e-16
0
LINE
5
167
100
AcDbEntity
8
0
100
AcDbLine
10
1.7500000000000007
20
-0.046712471841238418
30
-3.4967654318902565e-16
11
1.7500000000000002
21
-0.049212725009155529
31
-3.4967654318902565e-16
0
LINE
5
168
100
AcDbEntity
8
0
100
AcDbLine
10
1.7500000000000002
20
0.049212471841238191
30
-3.4967654318902565e-16
11
1.7500000000000007
21
0.046712471841239195
31
-3.4967654318902565e-16
0
LINE
5
169
100
AcDbEntity
8
0
100
AcDbLine
10
0.049212725009155703
20
1.7500000000000002
30
-3.4967654318902565e-16
11
0.046712471841239007
21
1.7500000000000002
31
-3.4967654318902565e-16
0
LINE
5
170
100
AcDbEntity
8
0
100
AcDbLine
10
-0.046712471841238584
20
1.7500000000000002
30
-3.4967654318902565e-16
11
-0.049212471841238017
21
1.7500000000000002
31
-3.4967654318902565e-16
0
LINE
5
171
100
AcDbEntity
8
0
100
AcDbLine
10
-1.7500000000000002
20
-0.046712471841238411
30
-3.4967654318902565e-16
11
-1.7500000000000002
21
-0.049212471841238406
31
-3.4967654318902565e-16
0
LINE
5
172
100
AcDbEntity
8
0
100
AcDbLine
10
-1.7500000000000002
20
0.049212725009155307
30
-3.4967654318902565e-16
11
-1.7500000000000002
21
0.046712471841239188
31
-3.4967654318902565e-16
0
LINE
5
173
100
AcDbEntity
8
0
100
AcDbLine
10
-1.1420000000000003
20
0.046712471841239042
30
-3.4967654318902565e-16
11
-0.83300000000000041
21
0.046712471841239042
31
-3.4967654318902565e-16
0
LINE
5
174
100
AcDbEntity
8
0
100
AcDbLine
10
-1.1420000000000003
20
-0.046712471841238543
30
-3.4967654318902565e-16
11
-0.83300000000000041
21
-0.046712471841238543
31
-3.4967654318902565e-16
0
LINE
5
175
100
AcDbEntity
8
0
100
AcDbLine
10
-0.83300000000000041
20
0.046712471841239042
30
-3.4967654318902565e-16
11
-0.83300000000000041
21
-0.046712471841238543
31
-3.4967654318902565e-16
0
LINE
5
176
100
AcDbEntity
8
0
100
AcDbLine
10
0.046712471841238799
20
-1.1420000000000006
30
-3.4967654318902565e-16
11
0.046712471841238737
21
-0.83300000000000052
31
-3.4967654318902565e-16
0
LINE
5
177
100
AcDbEntity
8
0
100
AcDbLine
10
-0.046712471841238869
20
-0.83300000000000052
30
-3.4967654318902565e-16
11
0.046712471841238737
21
-0.83300000000000052
31
-3.4967654318902565e-16
0
LINE
5
178
100
AcDbEntity
8
0
100
AcDbLine
10
-0.046712471841238799
20
-1.1420000000000006
30
-3.4967654318902565e-16
11
-0.046712471841238869
21
-0.83300000000000052
31
-3.4967654318902565e-16
0
LINE
5
179
100
AcDbEntity
8
0
100
AcDbLine
10
1.1420000000000003
20
0.046712471841238397
30
-3.4967654318902565e-16
11
0.83300000000000041
21
0.046712471841238438
31
-3.4967654318902565e-16
0
LINE
5
180
100
AcDbEntity
8
0
100
AcDbLine
10
0.83300000000000041
20
-0.046712471841239146
30
-3.4967654318902565e-16
11
0.83300000000000041
21
0.046712471841238438
31
-3.4967654318902565e-16
0
LINE
5
181
100
AcDbEntity
8
0
100
AcDbLine
10
1.1420000000000003
20
-0.046712471841239188
30
-3.4967654318902565e-16
11
0.83300000000000041
21
-0.046712471841239146
31
-3.4967654318902565e-16
0
LINE
5
182
100
AcDbEntity
8
0
100
AcDbLine
10
-0.046712471841238286
20
1.1420000000000003
30
-3.4967654318902565e-16
11
-0.046712471841238355
21
0.83300000000000041
31
-3.4967654318902565e-16
0
LINE
5
183
100
AcDbEntity
8
0
100
AcDbLine
10
0.04671247184123923
20
0.83300000000000041
30
-3.4967654318902565e-16
11
-0.046712471841238355
21
0.83300000000000041
31
-3.4967654318902565e-16
0
LINE
5
184
100
AcDbEntity
8
0
100
AcDbLine
10
0.046712471841239292
20
1.1420000000000003
30
-3.4967654318902565e-16
11
0.04671247184123923
21
0.83300000000000041
31
-3.4967654318902565e-16
0
ENDSEC
0
SECTION
2
OBJECTS
0
DICTIONARY
5
C
100
AcDbDictionary
3
ACAD_GROUP
350
D
3
ACAD_MLINESTYLE
350
17
0
DICTIONARY
5
D
100
AcDbDictionary
0
DICTIONARY
5
1A
330
C
100
AcDbDictionary
0
DICTIONARY
5
17
100
AcDbDictionary
0
ENDSEC
0
EOF
